<svg width="17" height="45" viewBox="0 0 17 45" fill="none" xmlns="http://www.w3.org/2000/svg">
<path fill-rule="evenodd" clip-rule="evenodd" d="M1 21.5832C1 8.50243 6.42166 1.44514 8.63885 1.44458C10.8563 1.44514 16.2777 8.50198 16.2777 21.5832C16.2777 34.8001 11.5346 43.7602 11.3333 44.1352L11.1371 44.4998H6.14063L5.94444 44.1352C5.74311 43.7601 1 34.8001 1 21.5832ZM7.94467 3.28839V3.28831L7.9448 3.28827L7.94467 3.28839ZM7.94467 3.28839V25.0559H9.33356V3.28831C11.1113 4.87511 14.8891 10.6479 14.8891 21.5834C14.8891 25.2327 14.5054 28.5625 13.9585 31.4705C13.1547 30.3264 11.6773 28.7692 8.98476 27.2309C2.43809 23.4896 2.51764 18.3523 2.52298 18.1354H2.52124C3.20353 9.41873 6.3648 4.70008 7.94467 3.28839ZM2.5248 25.2244C2.46577 24.4015 2.43105 23.5578 2.41195 22.6984C3.40505 24.5438 5.16716 26.6496 8.29533 28.4376C12.7407 30.9786 13.5018 33.492 13.5209 33.5553L13.5211 33.5559C13.1808 35.042 12.8076 36.3909 12.4343 37.5784C11.8492 36.542 10.818 35.2677 8.9968 34.1826C3.51236 30.917 2.64613 26.1791 2.5248 25.2244ZM9.33347 43.1114H10.2936L10.2934 43.1111C10.5694 42.5416 11.1284 41.3229 11.7639 39.5694C11.6284 38.9913 10.9792 36.9792 8.28471 35.375C5.83516 33.9151 4.22404 32.1772 3.15982 30.5488C4.29698 37.2105 6.35951 41.8232 6.98449 43.1114H7.94458V38.2501H9.33347V43.1114Z" fill="white"/>
<path d="M8.63885 1.44458L8.63897 0.94458L8.63872 0.94458L8.63885 1.44458ZM11.3333 44.1352L11.7736 44.3722L11.7738 44.3718L11.3333 44.1352ZM11.1371 44.4998V44.9998H11.4358L11.5774 44.7368L11.1371 44.4998ZM6.14063 44.4998L5.70032 44.7368L5.84188 44.9998H6.14063V44.4998ZM5.94444 44.1352L5.50389 44.3717L5.50414 44.3722L5.94444 44.1352ZM7.94467 3.28831L7.78358 2.81497L7.44467 2.93031V3.28831H7.94467ZM7.9448 3.28827L8.27789 3.66117L7.78371 2.81493L7.9448 3.28827ZM7.94467 25.0559H7.44467V25.5559H7.94467V25.0559ZM9.33356 25.0559V25.5559H9.83356V25.0559H9.33356ZM9.33356 3.28831L9.6665 2.91529L8.83356 2.17182V3.28831H9.33356ZM13.9585 31.4705L13.5494 31.758L14.2308 32.7279L14.4499 31.5629L13.9585 31.4705ZM8.98476 27.2309L8.73667 27.665L8.73673 27.6651L8.98476 27.2309ZM2.52298 18.1354L3.02283 18.1477L3.03542 17.6354H2.52298V18.1354ZM2.52124 18.1354L2.02277 18.0964L1.98058 18.6354H2.52124V18.1354ZM2.41195 22.6984L2.85224 22.4615L1.91208 22.7095L2.41195 22.6984ZM2.5248 25.2244L2.02608 25.2602L2.02706 25.2738L2.02879 25.2874L2.5248 25.2244ZM8.29533 28.4376L8.04721 28.8717L8.04721 28.8717L8.29533 28.4376ZM13.5209 33.5553L13.0424 33.7002L13.0426 33.7008L13.5209 33.5553ZM13.5211 33.5559L14.0085 33.6675L14.0382 33.5377L13.9995 33.4104L13.5211 33.5559ZM12.4343 37.5784L11.9989 37.8242L12.5656 38.8282L12.9113 37.7284L12.4343 37.5784ZM8.9968 34.1826L9.25272 33.7531L9.25261 33.753L8.9968 34.1826ZM10.2936 43.1114V43.6114H11.1571L10.7272 42.8625L10.2936 43.1114ZM9.33347 43.1114H8.83347V43.6114H9.33347V43.1114ZM10.2934 43.1111L9.84345 42.893L9.72817 43.1308L9.85975 43.36L10.2934 43.1111ZM11.7639 39.5694L12.234 39.7398L12.2846 39.6001L12.2507 39.4554L11.7639 39.5694ZM8.28471 35.375L8.02873 35.8045L8.02893 35.8046L8.28471 35.375ZM3.15982 30.5488L3.57837 30.2752L2.66695 30.6329L3.15982 30.5488ZM6.98449 43.1114L6.53464 43.3297L6.67133 43.6114H6.98449V43.1114ZM7.94458 43.1114V43.6114H8.44458V43.1114H7.94458ZM7.94458 38.2501V37.7501H7.44458V38.2501H7.94458ZM9.33347 38.2501H9.83347V37.7501H9.33347V38.2501ZM8.63872 0.94458C8.23586 0.944681 7.81757 1.10177 7.41478 1.34602C7.00624 1.59377 6.57843 1.95241 6.14684 2.40821C5.28317 3.32034 4.37036 4.6576 3.53726 6.39236C1.86933 9.86549 0.5 14.975 0.5 21.5832H1.5C1.5 15.1107 2.8415 10.1511 4.4387 6.82527C5.23816 5.16054 6.09649 3.91582 6.87297 3.09577C7.26145 2.68549 7.62097 2.39049 7.9333 2.20109C8.25139 2.00819 8.48754 1.94462 8.63897 1.94458L8.63872 0.94458ZM16.7777 21.5832C16.7777 14.9747 15.4084 9.86528 13.7406 6.3922C12.9075 4.65746 11.9947 3.32024 11.131 2.40814C10.6994 1.95235 10.2716 1.59373 9.86298 1.34599C9.46017 1.10175 9.04186 0.944681 8.63897 0.94458L8.63872 1.94458C8.79021 1.94462 9.0264 2.0082 9.34451 2.20108C9.65686 2.39048 10.0164 2.68546 10.4049 3.09572C11.1814 3.91573 12.0397 5.1604 12.8391 6.8251C14.4363 10.1509 15.7777 15.1105 15.7777 21.5832H16.7777ZM11.7738 44.3718C11.9956 43.9587 16.7777 34.9146 16.7777 21.5832H15.7777C15.7777 34.6856 11.0737 43.5618 10.8928 43.8987L11.7738 44.3718ZM11.5774 44.7368L11.7736 44.3722L10.893 43.8983L10.6968 44.2629L11.5774 44.7368ZM6.14063 44.9998H11.1371V43.9998H6.14063V44.9998ZM5.50414 44.3722L5.70032 44.7368L6.58093 44.2629L6.38475 43.8983L5.50414 44.3722ZM0.5 21.5832C0.5 34.9147 5.28216 43.9586 5.50389 44.3717L6.385 43.8988C6.20406 43.5617 1.5 34.6856 1.5 21.5832H0.5ZM7.44467 3.28831V3.28839H8.44467V3.28831H7.44467ZM7.78371 2.81493L7.78358 2.81497L8.10576 3.76165L8.10589 3.76161L7.78371 2.81493ZM8.27776 3.66128L8.27789 3.66117L7.61171 2.91537L7.61158 2.91549L8.27776 3.66128ZM8.44467 25.0559V3.28839H7.44467V25.0559H8.44467ZM9.33356 24.5559H7.94467V25.5559H9.33356V24.5559ZM8.83356 3.28831V25.0559H9.83356V3.28831H8.83356ZM15.3891 21.5834C15.3891 10.5449 11.5768 4.62039 9.6665 2.91529L9.00061 3.66133C10.6459 5.12984 14.3891 10.7509 14.3891 21.5834H15.3891ZM14.4499 31.5629C15.0018 28.6287 15.3891 25.2677 15.3891 21.5834H14.3891C14.3891 25.1977 14.0091 28.4964 13.4671 31.3781L14.4499 31.5629ZM8.73673 27.6651C11.3694 29.1691 12.7904 30.6777 13.5494 31.758L14.3677 31.1831C13.519 29.9752 11.9851 28.3692 9.23278 26.7968L8.73673 27.6651ZM2.02313 18.1231C2.01516 18.447 1.97326 23.7999 8.73667 27.665L9.23284 26.7968C2.90291 23.1794 3.02012 18.2576 3.02283 18.1477L2.02313 18.1231ZM2.52124 18.6354H2.52298V17.6354H2.52124V18.6354ZM7.61151 2.91555C5.91221 4.43397 2.71236 9.28641 2.02277 18.0964L3.01972 18.1744C3.69471 9.55105 6.8174 4.9662 8.27782 3.66122L7.61151 2.91555ZM1.91208 22.7095C1.93131 23.5749 1.96633 24.4271 2.02608 25.2602L3.02352 25.1886C2.96522 24.3759 2.93079 23.5407 2.91183 22.6873L1.91208 22.7095ZM8.54346 28.0036C5.49658 26.262 3.80103 24.2245 2.85224 22.4615L1.97166 22.9354C3.00907 24.8631 4.83774 27.0372 8.04721 28.8717L8.54346 28.0036ZM13.9995 33.4104C13.9449 33.23 13.1044 30.6106 8.54346 28.0036L8.04721 28.8717C10.2177 30.1124 11.4688 31.3346 12.1746 32.2342C12.5279 32.6846 12.7461 33.0561 12.8751 33.3116C12.9397 33.4395 12.982 33.5385 13.0078 33.6042C13.0207 33.6371 13.0295 33.6617 13.0349 33.6774C13.0401 33.6926 13.0424 33.7001 13.0424 33.7002L13.9995 33.4104ZM13.9995 33.4104L13.9993 33.4098L13.0426 33.7008L13.0427 33.7014L13.9995 33.4104ZM12.9113 37.7284C13.2884 36.5286 13.6652 35.1669 14.0085 33.6675L13.0337 33.4443C12.6965 34.9171 12.3267 36.2533 11.9573 37.4285L12.9113 37.7284ZM8.74088 34.6122C10.4813 35.6491 11.4531 36.8573 11.9989 37.8242L12.8697 37.3327C12.2454 36.2267 11.1547 34.8863 9.25272 33.7531L8.74088 34.6122ZM2.02879 25.2874C2.16054 26.3241 3.07328 31.2375 8.741 34.6122L9.25261 33.753C3.95143 30.5965 3.13173 26.0341 3.02081 25.1614L2.02879 25.2874ZM10.2936 42.6114H9.33347V43.6114H10.2936V42.6114ZM9.85975 43.36L9.85993 43.3604L10.7272 42.8625L10.727 42.8622L9.85975 43.36ZM11.2938 39.3991C10.665 41.1342 10.113 42.3369 9.84345 42.893L10.7433 43.3292C11.0258 42.7464 11.5919 41.5116 12.234 39.7398L11.2938 39.3991ZM8.02893 35.8046C10.5802 37.3235 11.1648 39.2041 11.277 39.6835L12.2507 39.4554C12.0921 38.7784 11.3781 36.6348 8.54049 34.9454L8.02893 35.8046ZM2.74127 30.8223C3.84416 32.5099 5.50934 34.303 8.02873 35.8045L8.54069 34.9455C6.16097 33.5272 4.60393 31.8446 3.57837 30.2752L2.74127 30.8223ZM7.43434 42.8932C6.82372 41.6346 4.77982 37.0676 3.65269 30.4646L2.66695 30.6329C3.81414 37.3534 5.8953 42.0119 6.53464 43.3297L7.43434 42.8932ZM7.94458 42.6114H6.98449V43.6114H7.94458V42.6114ZM7.44458 38.2501V43.1114H8.44458V38.2501H7.44458ZM9.33347 37.7501H7.94458V38.7501H9.33347V37.7501ZM9.83347 43.1114V38.2501H8.83347V43.1114H9.83347Z" fill="white"/>
</svg>
