<svg width="41" height="41" viewBox="0 0 41 41" fill="none" xmlns="http://www.w3.org/2000/svg">
<path d="M39.037 33.1882H30.7502C30.4851 33.1882 30.2688 33.4062 30.2688 33.6735C30.2688 33.9409 30.4851 34.1589 30.7502 34.1589H39.037C39.3022 34.1589 39.5185 33.9409 39.5185 33.6735C39.5185 33.4062 39.3022 33.1882 39.037 33.1882Z" fill="white" stroke="white"/>
<path d="M39.037 39.3401H29.7459C29.4807 39.3401 29.2644 39.5581 29.2644 39.8254C29.2644 40.0927 29.4807 40.3107 29.7459 40.3107H39.037C39.3022 40.3107 39.5185 40.0927 39.5185 39.8254C39.5185 39.5581 39.3022 39.3401 39.037 39.3401Z" fill="white" stroke="white"/>
<path d="M1.48148 36.6917H8.9743C9.23949 36.6917 9.45578 36.4737 9.45578 36.2064C9.45578 35.9391 9.23949 35.7211 8.9743 35.7211H1.48148C1.21629 35.7211 1 35.9391 1 36.2064C1 36.4756 1.21629 36.6917 1.48148 36.6917Z" fill="white" stroke="white"/>
<path fill-rule="evenodd" clip-rule="evenodd" d="M4.74481 1.5347C4.93098 1.44181 5.15292 1.47973 5.29962 1.6276L5.29986 1.62782C5.44468 1.77567 5.48229 2.00127 5.38825 2.18895C5.08921 2.79181 4.93875 3.43446 4.93875 4.09988C4.93875 6.47715 6.86843 8.41274 9.23823 8.41274C9.90215 8.41274 10.5435 8.25918 11.1453 7.95965C11.3315 7.86676 11.5534 7.90467 11.7001 8.05255C11.8468 8.20039 11.8826 8.42599 11.7904 8.61178C10.8933 10.426 9.08772 11.5521 7.07903 11.5521C4.1768 11.5521 1.81644 9.18032 1.81644 6.26653C1.81644 4.24752 2.93925 2.43521 4.74481 1.5347ZM10.1276 9.30712C9.83421 9.3583 9.53892 9.38295 9.23799 9.38295L9.23811 9.38312C6.33594 9.38312 3.97557 7.01327 3.97745 4.09948C3.97745 3.79616 4.0019 3.4985 4.05268 3.20466C3.24772 3.99897 2.7794 5.09093 2.7794 6.26632C2.7794 8.64549 4.70908 10.5811 7.07889 10.5811C8.25062 10.5811 9.33583 10.1128 10.1276 9.30712Z" fill="white"/>
<path d="M5.29962 1.6276L4.94467 1.97974L4.95013 1.98525L4.95576 1.99059L5.29962 1.6276ZM4.74481 1.5347L4.96796 1.98214L4.96803 1.98211L4.74481 1.5347ZM5.29986 1.62782L5.65705 1.27795L5.6505 1.27126L5.64371 1.26483L5.29986 1.62782ZM5.38825 2.18895L4.94123 1.96496L4.94033 1.96676L5.38825 2.18895ZM11.1453 7.95965L11.3681 8.40728L11.3686 8.40706L11.1453 7.95965ZM11.7001 8.05255L11.3452 8.40469L11.3452 8.40472L11.7001 8.05255ZM11.7904 8.61178L11.3425 8.38958L11.3422 8.39014L11.7904 8.61178ZM9.23799 9.38295V8.88295H8.26925L8.83043 9.67259L9.23799 9.38295ZM10.1276 9.30712L10.4842 9.65758L11.5757 8.54696L10.0417 8.81456L10.1276 9.30712ZM9.23811 9.38312V9.88312H10.2069L9.64567 9.09347L9.23811 9.38312ZM3.97745 4.09948L4.47745 4.0998V4.09948H3.97745ZM4.05268 3.20466L4.54537 3.2898L4.81077 1.75414L3.70148 2.84876L4.05268 3.20466ZM5.65457 1.27545C5.35795 0.976469 4.90346 0.896767 4.52158 1.0873L4.96803 1.98211C4.9646 1.98382 4.95919 1.9848 4.95398 1.98392C4.94894 1.98307 4.94571 1.98079 4.94467 1.97974L5.65457 1.27545ZM5.64371 1.26483L5.64347 1.2646L4.95576 1.99059L4.956 1.99082L5.64371 1.26483ZM5.83528 2.41293C6.02624 2.03181 5.94921 1.57622 5.65705 1.27795L4.94267 1.9777C4.94091 1.97591 4.94015 1.97395 4.93992 1.97253C4.93964 1.97078 4.93984 1.96773 4.94123 1.96496L5.83528 2.41293ZM5.43875 4.09988C5.43875 3.51191 5.57123 2.94526 5.83617 2.41113L4.94033 1.96676C4.6072 2.63835 4.43875 3.35701 4.43875 4.09988H5.43875ZM9.23823 7.91274C7.14603 7.91274 5.43875 6.20247 5.43875 4.09988H4.43875C4.43875 6.75184 6.59083 8.91274 9.23823 8.91274V7.91274ZM10.9226 7.51202C10.3882 7.77797 9.82293 7.91274 9.23823 7.91274V8.91274C9.98136 8.91274 10.6988 8.7404 11.3681 8.40728L10.9226 7.51202ZM12.0551 7.7004C11.7585 7.40142 11.304 7.32172 10.9221 7.51225L11.3686 8.40706C11.3651 8.40877 11.3597 8.40975 11.3545 8.40887C11.3495 8.40802 11.3462 8.40574 11.3452 8.40469L12.0551 7.7004ZM12.2383 8.83397C12.4251 8.45751 12.3532 8.00083 12.0551 7.70037L11.3452 8.40472C11.3427 8.40215 11.3415 8.39913 11.3412 8.3972C11.3409 8.39537 11.341 8.39253 11.3425 8.38958L12.2383 8.83397ZM7.07903 12.0521C9.27953 12.0521 11.2579 10.8167 12.2386 8.83341L11.3422 8.39014C10.5287 10.0354 8.89591 11.0521 7.07903 11.0521V12.0521ZM1.31644 6.26653C1.31644 9.45434 3.89854 12.0521 7.07903 12.0521V11.0521C4.45507 11.0521 2.31644 8.90631 2.31644 6.26653H1.31644ZM4.52165 1.08726C2.54662 2.07229 1.31644 4.05777 1.31644 6.26653H2.31644C2.31644 4.43727 3.33188 2.79812 4.96796 1.98214L4.52165 1.08726ZM9.23799 9.88295C9.56653 9.88295 9.89061 9.85601 10.2136 9.79968L10.0417 8.81456C9.77781 8.86059 9.51131 8.88295 9.23799 8.88295V9.88295ZM9.64567 9.09347L9.64555 9.0933L8.83043 9.67259L8.83055 9.67276L9.64567 9.09347ZM3.47745 4.09916C3.47539 7.28752 6.05797 9.88312 9.23811 9.88312V8.88312C6.6139 8.88312 4.47574 6.73903 4.47745 4.0998L3.47745 4.09916ZM3.55998 3.11951C3.5041 3.44289 3.47745 3.76909 3.47745 4.09948H4.47745C4.47745 3.82323 4.4997 3.55411 4.54537 3.2898L3.55998 3.11951ZM3.2794 6.26632C3.2794 5.22542 3.69361 4.26143 4.40387 3.56055L3.70148 2.84876C2.80183 3.73652 2.2794 4.95645 2.2794 6.26632H3.2794ZM7.07889 10.0811C4.98682 10.0811 3.2794 8.37094 3.2794 6.26632H2.2794C2.2794 8.92003 4.43134 11.0811 7.07889 11.0811V10.0811ZM9.771 8.95666C9.07231 9.66765 8.11521 10.0811 7.07889 10.0811V11.0811C8.38603 11.0811 9.59935 10.558 10.4842 9.65758L9.771 8.95666Z" fill="white"/>
<path fill-rule="evenodd" clip-rule="evenodd" d="M39.039 25.4101H39.0371C38.7719 25.4101 38.5575 25.6262 38.5556 25.8935L38.5443 28.485L20.677 1.92362C20.4983 1.65632 20.0601 1.65632 19.8796 1.92362L2.02529 28.466L2.03658 25.7153C2.03846 25.448 1.82217 25.2281 1.55698 25.2281H1.5551C1.28991 25.2281 1.0755 25.4442 1.07362 25.7115L1.05669 30.0528C1.05481 30.267 1.19399 30.4547 1.39523 30.5191C1.44225 30.5343 1.48927 30.54 1.53817 30.54C1.69428 30.54 1.84474 30.4623 1.9369 30.3277L4.74677 26.1513V30.0566C4.74677 30.3239 4.96306 30.5419 5.22826 30.5419H15.9523C16.4996 32.3315 18.1603 33.6358 20.1201 33.6358C20.1266 33.6358 20.1327 33.6353 20.1388 33.6348L20.1389 33.6348C20.145 33.6344 20.1511 33.6339 20.1577 33.6339C20.1605 33.6339 20.1638 33.6343 20.1671 33.6348L20.1671 33.6348L20.1672 33.6348C20.1704 33.6353 20.1737 33.6358 20.1765 33.6358C20.1825 33.6358 20.1884 33.6352 20.1944 33.6344L20.2047 33.6329C20.2141 33.6315 20.2235 33.6301 20.2329 33.6301C22.1419 33.5808 23.75 32.2955 24.2861 30.5419H35.3303C35.5955 30.5419 35.8118 30.3239 35.8118 30.0566V26.1513L38.6216 30.3277C38.7401 30.504 38.9583 30.5817 39.1595 30.5191C39.3608 30.4566 39.5 30.2689 39.5 30.0566L39.5188 25.8973C39.5207 25.6281 39.3062 25.4119 39.0392 25.4101L39.039 25.4101ZM20.2328 32.6597L20.2274 32.6601C20.2031 32.6619 20.1803 32.6635 20.1575 32.6635C19.3225 32.6521 18.6454 31.9696 18.6454 31.1318C18.6454 30.5801 19.4504 29.3099 20.1764 28.3525C20.9023 29.3099 21.7073 30.58 21.7073 31.1318C21.7073 31.9564 21.0509 32.6294 20.2328 32.6597L20.2328 32.6597ZM22.6684 31.1298C22.6684 31.2739 22.6496 31.4104 22.627 31.5469L22.627 31.5469C23.1781 30.9403 23.5166 30.1384 23.5129 29.2568C23.5129 27.8028 21.3236 24.7089 20.1161 23.1695C18.9106 24.7089 16.7194 27.8047 16.7194 29.2568C16.7194 30.2123 17.1163 31.0768 17.7501 31.6967C17.7087 31.5128 17.6805 31.3251 17.6805 31.1298C17.6805 29.9013 19.4503 27.6928 19.8039 27.2624C19.9864 27.0406 20.3625 27.0406 20.545 27.2624C20.9005 27.6928 22.6684 29.9014 22.6684 31.1298ZM20.4905 22.089C20.308 21.8672 19.9319 21.8672 19.7494 22.089C19.3413 22.5838 15.7602 26.997 15.7602 29.2572C15.7602 29.3333 15.7651 29.4084 15.7699 29.4832V29.4833C15.7718 29.5128 15.7737 29.5423 15.7753 29.5719H10.9268V26.3718C11.555 25.8599 13.637 24.0855 15.7454 21.4521C17.457 19.3156 19.4111 16.2957 20.2969 12.8528C21.1828 16.2974 23.1369 19.3153 24.8484 21.4521C26.9568 24.0854 29.0388 25.8598 29.6671 26.3718V29.5719H24.4628C24.4703 29.4676 24.4778 29.3633 24.4778 29.2572C24.4797 26.9974 20.8987 22.5841 20.4906 22.089H20.4905ZM30.6278 29.5716H34.8482L34.8507 24.7204L20.2801 3.06121L5.70954 24.7204V29.5716H9.96199V26.1365C9.96199 25.9849 10.0316 25.8427 10.1501 25.7517L10.1504 25.7514C10.2667 25.6595 19.8134 18.1172 19.8134 9.19028C19.8134 8.92298 20.0297 8.70496 20.2949 8.70496C20.5601 8.70496 20.7764 8.92298 20.7764 9.19028C20.7764 18.1141 30.3165 25.6543 30.4392 25.7513L30.4397 25.7517C30.5582 25.8446 30.6278 25.9868 30.6278 26.1365V29.5716Z" fill="white"/>
<path d="M39.039 25.4101V25.9101H39.0503L39.0617 25.9095L39.039 25.4101ZM38.5556 25.8935L38.0556 25.89L38.0556 25.8913L38.5556 25.8935ZM38.5443 28.485L38.1294 28.764L39.0372 30.1135L39.0443 28.4871L38.5443 28.485ZM20.677 1.92362L20.2613 2.20148L20.2621 2.2027L20.677 1.92362ZM19.8796 1.92362L19.4653 1.64375L19.4647 1.64455L19.8796 1.92362ZM2.02529 28.466L1.5253 28.464L1.51852 30.1152L2.44017 28.7451L2.02529 28.466ZM2.03658 25.7153L1.53659 25.7118L1.53658 25.7132L2.03658 25.7153ZM1.07362 25.7115L0.573627 25.708L0.573621 25.7095L1.07362 25.7115ZM1.05669 30.0528L1.55668 30.0572L1.55669 30.0547L1.05669 30.0528ZM1.39523 30.5191L1.54871 30.0433L1.54775 30.043L1.39523 30.5191ZM1.9369 30.3277L2.34947 30.6101L2.35174 30.6068L1.9369 30.3277ZM4.74677 26.1513H5.24677V24.5124L4.33193 25.8722L4.74677 26.1513ZM15.9523 30.5419L16.4304 30.3957L16.3222 30.0419H15.9523V30.5419ZM20.1388 33.6348L20.1774 34.1334L20.1804 34.1331L20.1388 33.6348ZM20.1389 33.6348L20.1003 33.1363L20.0974 33.1366L20.1389 33.6348ZM20.1671 33.6348L20.0959 34.1297L20.1038 34.1309L20.1118 34.1318L20.1671 33.6348ZM20.1671 33.6348L20.2291 33.1386L20.2223 33.1379L20.1671 33.6348ZM20.1672 33.6348L20.2383 33.1398L20.2292 33.1387L20.1672 33.6348ZM20.1944 33.6344L20.2594 34.1302L20.2659 34.1293L20.1944 33.6344ZM20.2047 33.6329L20.2762 34.1278L20.2795 34.1273L20.2047 33.6329ZM20.2329 33.6301V34.1303L20.2458 34.1299L20.2329 33.6301ZM24.2861 30.5419V30.0419H23.9161L23.8079 30.3957L24.2861 30.5419ZM35.8118 26.1513L36.2266 25.8722L35.3118 24.5124V26.1513H35.8118ZM38.6216 30.3277L39.0366 30.0488L39.0365 30.0485L38.6216 30.3277ZM39.1595 30.5191L39.308 30.9966L39.308 30.9966L39.1595 30.5191ZM39.5 30.0566L39 30.0543V30.0566H39.5ZM39.5188 25.8973L39.0188 25.8938L39.0188 25.895L39.5188 25.8973ZM39.0392 25.4101L39.0427 24.9101L39.0296 24.91L39.0165 24.9106L39.0392 25.4101ZM20.2274 32.6601L20.1914 32.1614L20.1913 32.1614L20.2274 32.6601ZM20.2328 32.6597L20.3452 32.1725L20.2719 32.1556L20.1968 32.161L20.2328 32.6597ZM20.1575 32.6635L20.1507 33.1635H20.1575V32.6635ZM20.1764 28.3525L20.5748 28.0504L20.1764 27.525L19.778 28.0504L20.1764 28.3525ZM20.2328 32.6597L20.1204 33.1469L20.185 33.1618L20.2513 33.1594L20.2328 32.6597ZM22.627 31.5469L23.1102 31.6757L23.1164 31.6523L23.1203 31.6285L22.627 31.5469ZM22.627 31.5469L22.1439 31.4181L22.9971 31.8831L22.627 31.5469ZM23.5129 29.2568L23.0128 29.2568L23.0129 29.259L23.5129 29.2568ZM20.1161 23.1695L20.5096 22.8609L20.1158 22.359L19.7225 22.8612L20.1161 23.1695ZM17.7501 31.6967L17.4005 32.0541L18.6089 33.236L18.2379 31.5869L17.7501 31.6967ZM19.8039 27.2624L19.4178 26.9448L19.4176 26.945L19.8039 27.2624ZM20.545 27.2624L20.1588 27.58L20.1595 27.5808L20.545 27.2624ZM19.7494 22.089L20.1351 22.4072L20.1356 22.4067L19.7494 22.089ZM20.4905 22.089L20.1043 22.4067L20.2543 22.589H20.4905V22.089ZM15.7699 29.4832H16.2699V29.4672L16.2689 29.4511L15.7699 29.4832ZM15.7699 29.4833H15.2699V29.4993L15.2709 29.5153L15.7699 29.4833ZM15.7753 29.5719V30.0719H16.3031L16.2746 29.5448L15.7753 29.5719ZM10.9268 29.5719H10.4268V30.0719H10.9268V29.5719ZM10.9268 26.3718L10.6109 25.9842L10.4268 26.1342V26.3718H10.9268ZM15.7454 21.4521L15.3552 21.1395L15.3551 21.1396L15.7454 21.4521ZM20.2969 12.8528L20.7812 12.7283L19.8127 12.7282L20.2969 12.8528ZM24.8484 21.4521L25.2387 21.1396L25.2387 21.1396L24.8484 21.4521ZM29.6671 26.3718H30.1671V26.1342L29.983 25.9842L29.6671 26.3718ZM29.6671 29.5719V30.0719H30.1671V29.5719H29.6671ZM24.4628 29.5719L23.9641 29.5359L23.9254 30.0719H24.4628V29.5719ZM24.4778 29.2572L23.9778 29.2567V29.2572H24.4778ZM20.4906 22.089L20.8764 21.771L20.7264 21.589H20.4906V22.089ZM34.8482 29.5716V30.0716H35.348L35.3482 29.5719L34.8482 29.5716ZM30.6278 29.5716H30.1278V30.0716H30.6278V29.5716ZM34.8507 24.7204L35.3507 24.7206L35.3508 24.568L35.2656 24.4413L34.8507 24.7204ZM20.2801 3.06121L20.695 2.78212L20.2801 2.16543L19.8653 2.78212L20.2801 3.06121ZM5.70954 24.7204L5.29468 24.4413L5.20954 24.5678V24.7204H5.70954ZM5.70954 29.5716H5.20954V30.0716H5.70954V29.5716ZM9.96199 29.5716V30.0716H10.462V29.5716H9.96199ZM10.1501 25.7517L10.4546 26.1483L10.4595 26.1444L10.1501 25.7517ZM10.1504 25.7514L10.4598 26.1442L10.4604 26.1437L10.1504 25.7514ZM30.4392 25.7513L30.7498 25.3595L30.7493 25.359L30.4392 25.7513ZM30.4397 25.7517L30.1291 26.1435L30.1312 26.1452L30.4397 25.7517ZM39.0371 25.9101H39.039V24.9101H39.0371V25.9101ZM39.0556 25.897C39.0556 25.8968 39.0556 25.8972 39.0554 25.8979C39.0553 25.8987 39.0551 25.8994 39.0547 25.9002C39.0541 25.9017 39.0532 25.903 39.0521 25.9042C39.0509 25.9053 39.049 25.9068 39.046 25.9081C39.0427 25.9095 39.0393 25.9101 39.0371 25.9101V24.9101C38.4914 24.9101 38.0594 25.3537 38.0556 25.89L39.0556 25.897ZM39.0443 28.4871L39.0556 25.8957L38.0556 25.8913L38.0443 28.4828L39.0443 28.4871ZM20.2621 2.2027L38.1294 28.764L38.9592 28.2059L21.0919 1.64455L20.2621 2.2027ZM20.2939 2.20349C20.2855 2.21594 20.276 2.2219 20.2725 2.2236C20.2702 2.22472 20.2726 2.22314 20.279 2.22314C20.2854 2.22314 20.2875 2.22473 20.2846 2.22331C20.2804 2.2213 20.2702 2.21477 20.2613 2.20148L21.0927 1.64576C20.8944 1.34912 20.5691 1.22314 20.279 1.22314C19.9889 1.22314 19.6643 1.34902 19.4653 1.64375L20.2939 2.20349ZM2.44017 28.7451L20.2945 2.20269L19.4647 1.64455L1.61042 28.187L2.44017 28.7451ZM1.53658 25.7132L1.5253 28.464L2.52529 28.4681L2.53657 25.7173L1.53658 25.7132ZM1.55698 25.7281C1.55356 25.7281 1.54959 25.7272 1.5462 25.7258C1.54319 25.7245 1.54147 25.7231 1.54056 25.7221C1.53965 25.7212 1.53871 25.7199 1.53792 25.718C1.53698 25.7158 1.53658 25.7134 1.53659 25.7118L2.53657 25.7188C2.54037 25.1782 2.10392 24.7281 1.55698 24.7281V25.7281ZM1.5551 25.7281H1.55698V24.7281H1.5551V25.7281ZM1.5736 25.715C1.57361 25.7148 1.57361 25.7152 1.57346 25.7159C1.57331 25.7167 1.57307 25.7174 1.57274 25.7182C1.5721 25.7197 1.57122 25.721 1.57009 25.7222C1.56896 25.7233 1.56705 25.7248 1.56405 25.7261C1.5607 25.7275 1.55732 25.7281 1.5551 25.7281V24.7281C1.00939 24.7281 0.577406 25.1717 0.573629 25.708L1.5736 25.715ZM1.55669 30.0547L1.57361 25.7134L0.573621 25.7095L0.556694 30.0508L1.55669 30.0547ZM1.54775 30.043C1.55005 30.0437 1.55213 30.0453 1.55355 30.0472C1.55521 30.0495 1.5567 30.0533 1.55667 30.0572L0.556709 30.0484C0.55287 30.4856 0.836726 30.8653 1.24271 30.9953L1.54775 30.043ZM1.53817 30.04C1.5331 30.04 1.53255 30.0397 1.53518 30.0401C1.53806 30.0405 1.5429 30.0414 1.54871 30.0433L1.24175 30.995C1.34879 31.0295 1.44939 31.04 1.53817 31.04V30.04ZM1.52433 30.0452C1.52509 30.0441 1.52877 30.04 1.53817 30.04V31.04C1.85979 31.04 2.16439 30.8804 2.34946 30.6101L1.52433 30.0452ZM4.33193 25.8722L1.52205 30.0486L2.35174 30.6068L5.16162 26.4304L4.33193 25.8722ZM5.24677 30.0566V26.1513H4.24677V30.0566H5.24677ZM5.22826 30.0419C5.23106 30.0419 5.23458 30.0426 5.23772 30.0439C5.2405 30.0451 5.24213 30.0464 5.24302 30.0473C5.24391 30.0482 5.24481 30.0494 5.24556 30.0512C5.24646 30.0533 5.24677 30.0554 5.24677 30.0566H4.24677C4.24677 30.5963 4.68319 31.0419 5.22826 31.0419V30.0419ZM15.9523 30.0419H5.22826V31.0419H15.9523V30.0419ZM20.1201 33.1358C18.3879 33.1358 16.9157 31.9826 16.4304 30.3957L15.4742 30.6881C16.0834 32.6804 17.9327 34.1358 20.1201 34.1358V33.1358ZM20.1003 33.1363C20.0965 33.1366 20.0984 33.1364 20.1012 33.1363C20.1047 33.1361 20.1114 33.1358 20.1201 33.1358V34.1358C20.1488 34.1358 20.1735 34.1336 20.1774 34.1333L20.1003 33.1363ZM20.0974 33.1366L20.0973 33.1366L20.1804 34.1331L20.1804 34.1331L20.0974 33.1366ZM20.1577 33.1339C20.1289 33.1339 20.1041 33.136 20.1003 33.1363L20.1775 34.1333C20.1814 34.133 20.1794 34.1332 20.1766 34.1334C20.1731 34.1336 20.1664 34.1339 20.1577 34.1339V33.1339ZM20.2383 33.1399C20.2382 33.1399 20.2286 33.1385 20.2178 33.1373C20.2071 33.1361 20.1852 33.1339 20.1577 33.1339V34.1339C20.133 34.1339 20.1141 34.1319 20.1066 34.1311C20.099 34.1302 20.0927 34.1293 20.0959 34.1297L20.2383 33.1399ZM20.2223 33.1379L20.2223 33.1379L20.1118 34.1318L20.1119 34.1318L20.2223 33.1379ZM20.2292 33.1387L20.2291 33.1387L20.1051 34.131L20.1051 34.131L20.2292 33.1387ZM20.1765 33.1358C20.2012 33.1358 20.22 33.1377 20.2276 33.1386C20.2352 33.1394 20.2415 33.1404 20.2383 33.1399L20.096 34.1297C20.0961 34.1298 20.1057 34.1312 20.1164 34.1324C20.1271 34.1336 20.1491 34.1358 20.1765 34.1358V33.1358ZM20.1294 33.1387C20.1336 33.1381 20.1517 33.1358 20.1765 33.1358V34.1358C20.2133 34.1358 20.2433 34.1323 20.2594 34.1302L20.1294 33.1387ZM20.1332 33.1381L20.1229 33.1396L20.2659 34.1293L20.2762 34.1278L20.1332 33.1381ZM20.2329 33.1301C20.1796 33.1301 20.1328 33.1381 20.1299 33.1386L20.2795 34.1273C20.2857 34.1264 20.2813 34.1271 20.2752 34.1278C20.2681 34.1286 20.2529 34.1301 20.2329 34.1301V33.1301ZM23.8079 30.3957C23.3328 31.9498 21.9076 33.0867 20.22 33.1303L20.2458 34.1299C22.3762 34.0749 24.1672 32.6412 24.7642 30.688L23.8079 30.3957ZM35.3303 30.0419H24.2861V31.0419H35.3303V30.0419ZM35.3118 30.0566C35.3118 30.0554 35.3121 30.0533 35.313 30.0512C35.3137 30.0494 35.3146 30.0482 35.3155 30.0473C35.3164 30.0464 35.318 30.0451 35.3208 30.0439C35.3239 30.0426 35.3275 30.0419 35.3303 30.0419V31.0419C35.8753 31.0419 36.3118 30.5963 36.3118 30.0566H35.3118ZM35.3118 26.1513V30.0566H36.3118V26.1513H35.3118ZM39.0365 30.0485L36.2266 25.8722L35.3969 26.4304L38.2068 30.6068L39.0365 30.0485ZM39.0111 30.0417C39.0235 30.0378 39.0333 30.0439 39.0366 30.0488L38.2066 30.6066C38.4469 30.9641 38.8931 31.1256 39.308 30.9966L39.0111 30.0417ZM39 30.0566C39 30.0525 39.0014 30.0491 39.0028 30.0472C39.0042 30.0454 39.0069 30.043 39.0111 30.0417L39.308 30.9966C39.7177 30.8692 40 30.4885 40 30.0566H39ZM39.0188 25.895L39 30.0543L40 30.0588L40.0188 25.8995L39.0188 25.895ZM39.0356 25.91C39.0349 25.91 39.0326 25.9098 39.0298 25.9086C39.0274 25.9075 39.0254 25.9061 39.0239 25.9046C39.0224 25.9031 39.021 25.9011 39.02 25.8987C39.0195 25.8974 39.0192 25.8963 39.019 25.8952C39.0188 25.8942 39.0188 25.8936 39.0188 25.8938L40.0188 25.9008C40.0226 25.3551 39.5856 24.9139 39.0427 24.9101L39.0356 25.91ZM39.0617 25.9095L39.0619 25.9095L39.0165 24.9106L39.0163 24.9106L39.0617 25.9095ZM20.2634 33.1588L20.2688 33.1584L20.1968 32.161L20.1914 32.1614L20.2634 33.1588ZM20.1575 33.1635C20.2015 33.1635 20.2425 33.1603 20.2634 33.1588L20.1913 32.1614C20.1784 32.1623 20.1711 32.1629 20.1647 32.1632C20.1589 32.1635 20.1571 32.1635 20.1575 32.1635V33.1635ZM18.1454 31.1318C18.1454 32.2442 19.0432 33.1484 20.1507 33.1635L20.1644 32.1636C19.6017 32.1559 19.1454 31.6951 19.1454 31.1318H18.1454ZM19.778 28.0504C19.4062 28.5407 19.0108 29.1153 18.7055 29.6444C18.5532 29.9086 18.4182 30.1701 18.3199 30.4096C18.2268 30.6367 18.1454 30.8934 18.1454 31.1318H19.1454C19.1454 31.0942 19.1646 30.9854 19.2451 30.7892C19.3205 30.6055 19.4321 30.3861 19.5717 30.1441C19.8505 29.6609 20.2205 29.1218 20.5748 28.6546L19.778 28.0504ZM22.2073 31.1318C22.2073 30.8934 22.1259 30.6366 22.0328 30.4096C21.9345 30.1701 21.7996 29.9086 21.6472 29.6444C21.342 29.1153 20.9465 28.5407 20.5748 28.0504L19.778 28.6547C20.1322 29.1218 20.5023 29.6609 20.781 30.1441C20.9206 30.3861 21.0323 30.6055 21.1076 30.7891C21.1881 30.9853 21.2073 31.0942 21.2073 31.1318H22.2073ZM20.2513 33.1594C21.336 33.1192 22.2073 32.2275 22.2073 31.1318H21.2073C21.2073 31.6853 20.7659 32.1396 20.2143 32.1601L20.2513 33.1594ZM20.1203 33.1469L20.1204 33.1469L20.3452 32.1725L20.3452 32.1725L20.1203 33.1469ZM23.1203 31.6285C23.144 31.4852 23.1684 31.316 23.1684 31.1298H22.1684C22.1684 31.2318 22.1552 31.3356 22.1337 31.4653L23.1203 31.6285ZM23.1101 31.6758L23.1102 31.6757L22.1439 31.4181L22.1439 31.4181L23.1101 31.6758ZM23.0129 29.259C23.0161 30.0081 22.729 30.6911 22.2569 31.2108L22.9971 31.8831C23.6272 31.1895 24.0172 30.2687 24.0128 29.2547L23.0129 29.259ZM19.7227 23.4781C20.319 24.2383 21.1555 25.3798 21.8401 26.5051C22.1827 27.068 22.4814 27.6175 22.6929 28.1071C22.9099 28.6091 23.0129 28.9983 23.0129 29.2568H24.0129C24.0129 28.7884 23.8422 28.2456 23.6109 27.7104C23.3742 27.1628 23.0502 26.57 22.6945 25.9853C21.9826 24.8152 21.1207 23.6401 20.5096 22.8609L19.7227 23.4781ZM17.2194 29.2568C17.2194 28.9989 17.3224 28.61 17.5396 28.108C17.7513 27.6185 18.0502 27.0689 18.3928 26.5058C19.0777 25.3802 19.9143 24.2382 20.5098 23.4778L19.7225 22.8612C19.1124 23.6402 18.2506 24.8157 17.5386 25.986C17.1827 26.5707 16.8585 27.1636 16.6217 27.711C16.3903 28.246 16.2194 28.7887 16.2194 29.2568H17.2194ZM18.0997 31.3392C17.5571 30.8085 17.2194 30.0709 17.2194 29.2568H16.2194C16.2194 30.3536 16.6755 31.345 17.4005 32.0541L18.0997 31.3392ZM17.1805 31.1298C17.1805 31.3732 17.2157 31.5994 17.2623 31.8064L18.2379 31.5869C18.2017 31.4261 18.1805 31.2769 18.1805 31.1298H17.1805ZM19.4176 26.945C19.236 27.166 18.6909 27.8433 18.1886 28.6271C17.9377 29.0187 17.691 29.4469 17.5055 29.8651C17.3244 30.2734 17.1805 30.7182 17.1805 31.1298H18.1805C18.1805 30.9272 18.2579 30.6352 18.4196 30.2705C18.577 29.9156 18.7949 29.5344 19.0306 29.1666C19.5017 28.4314 20.0183 27.7892 20.1903 27.5798L19.4176 26.945ZM20.9311 26.9448C20.5487 26.4798 19.8002 26.4798 19.4178 26.9448L20.1901 27.58C20.1815 27.5905 20.1732 27.595 20.1704 27.5962C20.1683 27.5971 20.1699 27.5961 20.1745 27.5961C20.179 27.5961 20.1807 27.5971 20.1785 27.5962C20.1757 27.595 20.1674 27.5905 20.1588 27.58L20.9311 26.9448ZM23.1684 31.1298C23.1684 30.7183 23.0247 30.2736 22.8437 29.8652C22.6584 29.447 22.4119 29.0188 22.1611 28.6272C21.6591 27.8434 21.1139 27.1661 20.9305 26.944L20.1595 27.5808C20.3316 27.7892 20.8481 28.4313 21.319 29.1665C21.5545 29.5343 21.7722 29.9155 21.9295 30.2704C22.0911 30.6351 22.1684 30.9271 22.1684 31.1298H23.1684ZM20.1356 22.4067C20.127 22.4171 20.1187 22.4216 20.1159 22.4228C20.1137 22.4237 20.1154 22.4227 20.1199 22.4227C20.1245 22.4227 20.1261 22.4237 20.124 22.4228C20.1212 22.4216 20.1129 22.4171 20.1043 22.4067L20.8766 21.7714C20.4942 21.3065 19.7457 21.3064 19.3633 21.7714L20.1356 22.4067ZM16.2602 29.2572C16.2602 28.8036 16.446 28.1849 16.7799 27.4632C17.108 26.7543 17.5542 25.9977 18.0203 25.2847C18.9519 23.8594 19.936 22.6486 20.1351 22.4072L19.3637 21.7709C19.1547 22.0242 18.1442 23.2675 17.1833 24.7375C16.7031 25.4722 16.2285 26.2736 15.8724 27.0433C15.5221 27.8002 15.2602 28.5806 15.2602 29.2572H16.2602ZM16.2689 29.4511C16.2639 29.3737 16.2602 29.3146 16.2602 29.2572H15.2602C15.2602 29.352 15.2663 29.443 15.2709 29.5153L16.2689 29.4511ZM16.2699 29.4833V29.4832H15.2699V29.4833H16.2699ZM16.2746 29.5448C16.2728 29.5124 16.2707 29.4803 16.2689 29.4512L15.2709 29.5153C15.2729 29.5453 15.2746 29.5723 15.276 29.5989L16.2746 29.5448ZM10.9268 30.0719H15.7753V29.0719H10.9268V30.0719ZM10.4268 26.3718V29.5719H11.4268V26.3718H10.4268ZM15.3551 21.1396C13.2762 23.7361 11.2228 25.4856 10.6109 25.9842L11.2426 26.7594C11.8872 26.2342 13.9978 24.4349 16.1357 21.7646L15.3551 21.1396ZM19.8127 12.7282C18.9516 16.0749 17.0445 19.0307 15.3552 21.1395L16.1357 21.7647C17.8694 19.6005 19.8706 16.5164 20.7812 12.9774L19.8127 12.7282ZM25.2387 21.1396C23.5493 19.0303 21.6423 16.0767 20.7812 12.7283L19.8127 12.9773C20.7233 16.5182 22.7246 19.6003 24.4582 21.7647L25.2387 21.1396ZM29.983 25.9842C29.371 25.4855 27.3176 23.736 25.2387 21.1396L24.4581 21.7646C26.596 24.4347 28.7066 26.2341 29.3512 26.7594L29.983 25.9842ZM30.1671 29.5719V26.3718H29.1671V29.5719H30.1671ZM24.4628 30.0719H29.6671V29.0719H24.4628V30.0719ZM23.9778 29.2572C23.9778 29.3424 23.9718 29.4288 23.9641 29.5359L24.9615 29.6078C24.9688 29.5064 24.9778 29.3843 24.9778 29.2572H23.9778ZM20.1048 22.4071C20.304 22.6487 21.288 23.8596 22.2194 25.2849C22.6853 25.9979 23.1314 26.7544 23.4592 27.4633C23.7928 28.1849 23.9782 28.8035 23.9778 29.2567L24.9778 29.2576C24.9784 28.581 24.7168 27.8005 24.3668 27.0436C24.0109 26.2739 23.5366 25.4725 23.0565 24.7378C22.0958 23.2677 21.0852 22.0244 20.8764 21.771L20.1048 22.4071ZM20.4905 22.589H20.4906V21.589H20.4905V22.589ZM34.8482 29.0716H30.6278V30.0716H34.8482V29.0716ZM34.3507 24.7201L34.3482 29.5714L35.3482 29.5719L35.3507 24.7206L34.3507 24.7201ZM19.8653 3.34029L34.4359 24.9995L35.2656 24.4413L20.695 2.78212L19.8653 3.34029ZM6.12441 24.9995L20.695 3.34029L19.8653 2.78212L5.29468 24.4413L6.12441 24.9995ZM6.20954 29.5716V24.7204H5.20954V29.5716H6.20954ZM9.96199 29.0716H5.70954V30.0716H9.96199V29.0716ZM9.46199 26.1365V29.5716H10.462V26.1365H9.46199ZM9.84552 25.3551C9.60192 25.5422 9.46199 25.8319 9.46199 26.1365H10.462C10.462 26.1379 10.4612 26.1432 10.4546 26.1482L9.84552 25.3551ZM9.84097 25.3587L9.84063 25.3589L10.4595 26.1444L10.4598 26.1442L9.84097 25.3587ZM19.3134 9.19028C19.3134 13.4842 17.0109 17.4906 14.6345 20.4724C12.2671 23.4428 9.88456 25.3242 9.84044 25.3591L10.4604 26.1437C10.5325 26.0867 12.9815 24.151 15.4165 21.0956C17.8426 18.0515 20.3134 13.8232 20.3134 9.19028H19.3134ZM20.2949 8.20496C19.7498 8.20496 19.3134 8.65058 19.3134 9.19028H20.3134C20.3134 9.19141 20.3131 9.19351 20.3122 9.19563C20.3114 9.19741 20.3105 9.19863 20.3096 9.19953C20.3087 9.20043 20.3071 9.20175 20.3043 9.20294C20.3012 9.20428 20.2977 9.20496 20.2949 9.20496V8.20496ZM21.2764 9.19028C21.2764 8.65058 20.8399 8.20496 20.2949 8.20496V9.20496C20.2921 9.20496 20.2886 9.20428 20.2854 9.20294C20.2826 9.20175 20.281 9.20043 20.2801 9.19953C20.2792 9.19863 20.2783 9.19741 20.2776 9.19563C20.2767 9.19351 20.2764 9.19141 20.2764 9.19028H21.2764ZM30.7493 25.359C30.7019 25.3216 28.3193 23.4394 25.9528 20.4693C23.5773 17.4878 21.2764 13.4827 21.2764 9.19028H20.2764C20.2764 13.8217 22.7455 18.0486 25.1707 21.0924C27.6049 24.1476 30.0538 26.084 30.1292 26.1436L30.7493 25.359ZM30.7503 25.3599L30.7498 25.3595L30.1286 26.1431L30.1291 26.1435L30.7503 25.3599ZM31.1278 26.1365C31.1278 25.8318 30.9865 25.5451 30.7482 25.3582L30.1312 26.1452C30.1298 26.1441 30.1278 26.1417 30.1278 26.1365H31.1278ZM31.1278 29.5716V26.1365H30.1278V29.5716H31.1278Z" fill="white"/>
<path fill-rule="evenodd" clip-rule="evenodd" d="M27.596 35.433C27.6393 35.5543 27.6299 35.6908 27.5735 35.8064L27.5738 35.8064C27.5155 35.924 27.4158 36.0131 27.2917 36.0548L25.5106 36.6482L27.2221 37.1354C27.3462 37.1714 27.4515 37.2548 27.5136 37.3686C27.5757 37.4823 27.5888 37.615 27.5531 37.7401L26.9381 39.8293C26.8761 40.0397 26.6861 40.1762 26.4773 40.1762C26.4341 40.1762 26.3889 40.1686 26.3457 40.1572L20.2179 38.4112L14.5941 40.2861C14.5452 40.3032 14.4945 40.3108 14.4437 40.3108C14.2443 40.3108 14.0581 40.1857 13.9923 39.9847L13.2832 37.924C13.24 37.8027 13.2494 37.6662 13.3058 37.5506C13.3622 37.433 13.4638 37.3458 13.586 37.3041L15.0718 36.8093L13.287 36.3012C13.1628 36.2652 13.0575 36.1818 12.9955 36.0681C12.9334 35.9543 12.9202 35.8216 12.956 35.6965L13.571 33.6074C13.6462 33.3514 13.9095 33.2055 14.1634 33.2775L20.3644 35.0443L26.2813 33.0708C26.5315 32.9874 26.8004 33.122 26.8869 33.3723L27.596 35.433ZM14.3592 34.341L14.0169 35.4993L16.7026 36.2652L18.7339 35.5884L14.3592 34.341ZM26.4901 37.9354L26.1478 39.0937L21.8483 37.8671L23.8796 37.1904L26.4901 37.9354ZM14.3499 38.0718L14.7429 39.215L26.5262 35.287L26.1331 34.1438L14.3499 38.0718Z" fill="white"/>
<path d="M27.5735 35.8064L27.1241 35.5872L26.7793 36.2937L27.5654 36.3064L27.5735 35.8064ZM27.596 35.433L27.1232 35.5957L27.1251 35.6009L27.596 35.433ZM27.5738 35.8064L28.0217 36.0286L28.3736 35.3192L27.5818 35.3065L27.5738 35.8064ZM27.2917 36.0548L27.4497 36.5292L27.4509 36.5288L27.2917 36.0548ZM25.5106 36.6482L25.3525 36.1738L23.8161 36.6857L25.3737 37.1291L25.5106 36.6482ZM27.2221 37.1354L27.3614 36.6552L27.359 36.6545L27.2221 37.1354ZM27.5531 37.7401L28.0328 37.8813L28.0339 37.8775L27.5531 37.7401ZM26.9381 39.8293L27.4177 39.9707L27.4178 39.9705L26.9381 39.8293ZM26.3457 40.1572L26.2086 40.6382L26.2185 40.6408L26.3457 40.1572ZM20.2179 38.4112L20.3549 37.9304L20.2063 37.888L20.0597 37.9369L20.2179 38.4112ZM14.5941 40.2861L14.436 39.8118L14.4294 39.8141L14.5941 40.2861ZM13.9923 39.9847L14.4675 39.8291L14.4651 39.822L13.9923 39.9847ZM13.2832 37.924L13.756 37.7613L13.7542 37.7561L13.2832 37.924ZM13.3058 37.5506L13.7552 37.7698L13.7565 37.7669L13.3058 37.5506ZM13.586 37.3041L13.428 36.8297L13.4246 36.8309L13.586 37.3041ZM15.0718 36.8093L15.2298 37.2837L16.7667 36.7719L15.2087 36.3284L15.0718 36.8093ZM13.287 36.3012L13.1476 36.7814L13.1501 36.7821L13.287 36.3012ZM12.9955 36.0681L13.4344 35.8286L13.4344 35.8286L12.9955 36.0681ZM12.956 35.6965L12.4763 35.5553L12.4752 35.5592L12.956 35.6965ZM13.571 33.6074L14.0506 33.7486L14.0506 33.7484L13.571 33.6074ZM14.1634 33.2775L14.3004 32.7966L14.2999 32.7965L14.1634 33.2775ZM20.3644 35.0443L20.2274 35.5252L20.376 35.5675L20.5226 35.5187L20.3644 35.0443ZM26.2813 33.0708L26.1232 32.5965L26.1231 32.5965L26.2813 33.0708ZM26.8869 33.3723L27.3597 33.2096L27.3595 33.2089L26.8869 33.3723ZM14.0169 35.4993L13.5374 35.3576L13.3943 35.8417L13.8797 35.9802L14.0169 35.4993ZM14.3592 34.341L14.4963 33.8602L14.02 33.7244L13.8797 34.1993L14.3592 34.341ZM16.7026 36.2652L16.5655 36.746L16.7141 36.7884L16.8606 36.7396L16.7026 36.2652ZM18.7339 35.5884L18.8919 36.0628L20.4271 35.5513L18.871 35.1076L18.7339 35.5884ZM26.1478 39.0937L26.0107 39.5745L26.4869 39.7104L26.6273 39.2354L26.1478 39.0937ZM26.4901 37.9354L26.9696 38.0771L27.1127 37.5931L26.6273 37.4546L26.4901 37.9354ZM21.8483 37.8671L21.6903 37.3928L20.1554 37.9041L21.7112 38.348L21.8483 37.8671ZM23.8796 37.1904L24.0168 36.7096L23.8682 36.6671L23.7216 36.716L23.8796 37.1904ZM14.7429 39.215L14.2701 39.3776L14.4312 39.846L14.9011 39.6893L14.7429 39.215ZM14.3499 38.0718L14.1917 37.5975L13.7129 37.7571L13.877 38.2344L14.3499 38.0718ZM26.5262 35.287L26.6844 35.7613L27.1632 35.6017L26.9991 35.1244L26.5262 35.287ZM26.1331 34.1438L26.606 33.9812L26.4449 33.5128L25.975 33.6695L26.1331 34.1438ZM28.0228 36.0257C28.136 35.7937 28.1571 35.5177 28.067 35.2651L27.1251 35.6009C27.123 35.595 27.123 35.5914 27.1231 35.5906C27.1232 35.5898 27.1233 35.5889 27.1241 35.5872L28.0228 36.0257ZM27.5818 35.3065L27.5815 35.3065L27.5654 36.3064L27.5657 36.3064L27.5818 35.3065ZM27.4509 36.5288C27.7053 36.4433 27.9065 36.2608 28.0217 36.0286L27.1259 35.5842C27.1248 35.5863 27.1246 35.5859 27.1263 35.5844C27.1281 35.5828 27.1304 35.5815 27.1324 35.5808L27.4509 36.5288ZM25.6686 37.1226L27.4497 36.5292L27.1336 35.5804L25.3525 36.1738L25.6686 37.1226ZM27.359 36.6545L25.6475 36.1673L25.3737 37.1291L27.0852 37.6163L27.359 36.6545ZM27.9525 37.1291C27.8255 36.8962 27.6111 36.7276 27.3614 36.6552L27.0827 37.6156C27.0814 37.6152 27.0776 37.6135 27.0747 37.6081L27.9525 37.1291ZM28.0339 37.8775C28.1044 37.6307 28.0797 37.3622 27.9525 37.1291L27.0747 37.6081C27.0735 37.6059 27.0729 37.6036 27.0727 37.602C27.0726 37.6006 27.0729 37.6008 27.0723 37.6028L28.0339 37.8775ZM27.4178 39.9705L28.0328 37.8813L27.0735 37.5989L26.4585 39.6881L27.4178 39.9705ZM26.4773 40.6762C26.9052 40.6762 27.2922 40.3962 27.4177 39.9707L26.4585 39.6878C26.4585 39.6878 26.459 39.6865 26.4603 39.6847C26.4614 39.683 26.4629 39.6815 26.4646 39.6803C26.4677 39.6779 26.4722 39.6762 26.4773 39.6762V40.6762ZM26.2185 40.6408C26.2889 40.6593 26.3785 40.6762 26.4773 40.6762V39.6762C26.4845 39.6762 26.4875 39.6768 26.4857 39.6765C26.4841 39.6763 26.4798 39.6755 26.4728 39.6737L26.2185 40.6408ZM20.0808 38.8921L26.2087 40.6381L26.4827 39.6764L20.3549 37.9304L20.0808 38.8921ZM14.7523 40.7605L20.376 38.8856L20.0597 37.9369L14.436 39.8118L14.7523 40.7605ZM14.4437 40.8108C14.5443 40.8108 14.6514 40.7957 14.7589 40.7582L14.4294 39.8141C14.4391 39.8107 14.4447 39.8108 14.4437 39.8108V40.8108ZM13.5171 40.1404C13.6531 40.5555 14.0375 40.8108 14.4437 40.8108V39.8108C14.4485 39.8108 14.4528 39.8122 14.4567 39.815C14.4589 39.8165 14.4612 39.8187 14.4633 39.8215C14.4656 39.8245 14.4669 39.8273 14.4675 39.8291L13.5171 40.1404ZM12.8104 38.0867L13.5195 40.1474L14.4651 39.822L13.756 37.7613L12.8104 38.0867ZM12.8564 37.3313C12.7432 37.5633 12.7222 37.8392 12.8123 38.0919L13.7542 37.7561C13.7563 37.762 13.7562 37.7656 13.7561 37.7664C13.7561 37.7672 13.756 37.7681 13.7551 37.7698L12.8564 37.3313ZM13.4246 36.8309C13.1807 36.9141 12.9719 37.0906 12.855 37.3342L13.7565 37.7669C13.7548 37.7706 13.7524 37.7735 13.7502 37.7754C13.7482 37.7771 13.7471 37.7775 13.7475 37.7773L13.4246 36.8309ZM14.9139 36.3349L13.4281 36.8297L13.744 37.7785L15.2298 37.2837L14.9139 36.3349ZM13.1501 36.7821L14.9349 37.2902L15.2087 36.3284L13.4239 35.8204L13.1501 36.7821ZM12.5565 36.3076C12.6836 36.5404 12.898 36.709 13.1476 36.7814L13.4263 35.8211C13.4277 35.8215 13.4314 35.8232 13.4344 35.8286L12.5565 36.3076ZM12.4752 35.5592C12.4047 35.8059 12.4293 36.0744 12.5565 36.3076L13.4344 35.8286C13.4356 35.8308 13.4362 35.833 13.4363 35.8346C13.4365 35.8361 13.4362 35.8358 13.4367 35.8338L12.4752 35.5592ZM13.0913 33.4662L12.4763 35.5553L13.4356 35.8377L14.0506 33.7486L13.0913 33.4662ZM14.2999 32.7965C13.7792 32.6487 13.243 32.9502 13.0913 33.4663L14.0506 33.7484C14.0507 33.7483 14.0501 33.7499 14.0485 33.752C14.047 33.7538 14.0452 33.7553 14.0432 33.7564C14.0412 33.7576 14.0385 33.7585 14.0352 33.7589C14.0316 33.7594 14.0285 33.759 14.0269 33.7585L14.2999 32.7965ZM20.5014 34.5635L14.3004 32.7966L14.0264 33.7584L20.2274 35.5252L20.5014 34.5635ZM26.1231 32.5965L20.2062 34.57L20.5226 35.5187L26.4395 33.5452L26.1231 32.5965ZM27.3595 33.2089C27.1848 32.7037 26.6372 32.4251 26.1232 32.5965L26.4395 33.5452C26.4377 33.5458 26.4344 33.5464 26.4306 33.5461C26.4271 33.5458 26.4244 33.5449 26.4224 33.5439C26.4204 33.5429 26.4186 33.5416 26.4171 33.5398C26.4163 33.539 26.4157 33.538 26.4151 33.5372C26.4149 33.5367 26.4147 33.5364 26.4146 33.5361C26.4145 33.536 26.4145 33.5358 26.4144 33.5358C26.4144 33.5357 26.4144 33.5357 26.4144 33.5357L27.3595 33.2089ZM28.0688 35.2703L27.3597 33.2096L26.4142 33.535L27.1232 35.5957L28.0688 35.2703ZM14.4964 35.641L14.8387 34.4827L13.8797 34.1993L13.5374 35.3576L14.4964 35.641ZM16.8397 35.7844L14.154 35.0185L13.8797 35.9802L16.5655 36.746L16.8397 35.7844ZM18.5758 35.1141L16.5445 35.7908L16.8606 36.7396L18.8919 36.0628L18.5758 35.1141ZM14.2221 34.8219L18.5968 36.0693L18.871 35.1076L14.4963 33.8602L14.2221 34.8219ZM26.6273 39.2354L26.9696 38.0771L26.0106 37.7937L25.6683 38.952L26.6273 39.2354ZM21.7112 38.348L26.0107 39.5745L26.285 38.6129L21.9855 37.3863L21.7112 38.348ZM23.7216 36.716L21.6903 37.3928L22.0064 38.3415L24.0377 37.6647L23.7216 36.716ZM26.6273 37.4546L24.0168 36.7096L23.7424 37.6712L26.3529 38.4162L26.6273 37.4546ZM15.2158 39.0524L14.8227 37.9093L13.877 38.2344L14.2701 39.3776L15.2158 39.0524ZM26.3681 34.8126L14.5848 38.7407L14.9011 39.6893L26.6844 35.7613L26.3681 34.8126ZM25.6603 34.3064L26.0534 35.4495L26.9991 35.1244L26.606 33.9812L25.6603 34.3064ZM14.508 38.5462L26.2913 34.6181L25.975 33.6695L14.1917 37.5975L14.508 38.5462Z" fill="white"/>
</svg>
