<svg width="1001" height="496" viewBox="0 0 1001 496" fill="none" xmlns="http://www.w3.org/2000/svg">
<g opacity="0.29827">
<path d="M1008.08 934.448L443.182 414.142V23.8104L28.1096 1C24.9043 8.54402 4.36709 30.2855 7.57176 42.404C11.43 56.898 30.8387 52.2648 36.4776 61.5906C43.0661 72.58 31.7291 117.251 28.3457 130.14C21.8759 154.555 7.09676 174.335 2.82235 198.75C-4.35982 239.737 10.1824 236.47 37.7242 262.073C84.141 305.258 46.9244 350.048 58.6176 400.777C68.1146 442.122 109.605 463.446 124.8 504.789C136.553 536.63 152.697 544.767 177.746 568.053C177.153 553.916 164.51 512.215 188.253 515.898C211.817 519.522 202.736 554.331 207.247 568.885C211.045 581.003 237.933 605.239 215.616 616.407C208.196 620.09 187.066 605.418 178.577 601.497C184.572 620.209 180.774 639.633 190.271 657.513C201.608 678.838 213.835 670.641 228.853 682.225C244.344 694.164 242.683 707.886 235.797 725.945C228.615 744.775 221.196 741.865 232.592 764.557C240.843 780.951 254.85 801.742 266.9 814.216C273.904 821.463 281.502 823.127 288.506 832.393C294.323 840.115 292.067 850.214 299.012 857.164C310.883 869.104 331.006 869.282 340.384 884.904C350.831 902.309 338.96 915.437 369.706 913.833C371.309 948.643 377.897 980.185 377.541 1014.99C394.695 1021.82 422.414 1013.69 440.399 1010.06C458.266 1034.18 481.355 1017.43 501.774 1030.56C510.678 1036.26 508.837 1050.52 514.239 1055.51C525.339 1065.72 533.529 1059.31 547.301 1062.87C557.51 1065.49 565.404 1072.97 575.138 1075.7C584.338 1078.26 599.475 1072.26 606.301 1080.4C614.492 1090.14 600.78 1107.96 613.127 1115.8C623.395 1122.33 638.115 1106.77 648.088 1109.03C659.721 1111.7 693.079 1142.17 701.271 1152.21C710.59 1163.68 719.969 1185.06 725.25 1199.79C733.501 1222.84 732.373 1234.13 749.408 1251C760.27 1261.75 749.942 1262.52 767.63 1265.67C779.204 1267.75 794.518 1259.37 806.212 1258.07C830.549 1255.39 855.122 1260.03 879.102 1255.45C901.421 1251.18 922.729 1244.17 945.64 1240.9C965.465 1238.05 1000.37 1240.25 1017.94 1230.8C1036.99 1220.64 1038.71 1197.65 1011.17 1201.93C1008.97 1187.26 1018.77 1167 1007.85 1156.85C1023.04 1136.06 1028.56 1121.38 1030.93 1095.96C1032 1084.79 1032.48 1072.44 1038 1063.05C1043.4 1053.78 1058.59 1048.26 1061.56 1040.3C1066.13 1027.94 1058.83 1022.42 1053.25 1015.53C1049.69 1011.07 1039.54 1013.21 1036.63 1009.29C1031.23 1002.1 1036.57 994.678 1033.6 987.431C1024.94 966.462 1014.61 958.205 1008.08 934.444C1008.26 938.424 1008.44 942.463 1008.2 946.384" stroke="white" stroke-width="2" stroke-linecap="round" stroke-linejoin="round"/>
</g>
<path d="M734 856.5C734 856.5 654.5 879.5 679 920C703.5 960.5 753 1027 700 1000C647 973 599.5 1027.5 630 1064C660.5 1100.5 734 1102 763.5 1137.5C793 1173 725.5 1239 725.5 1239" stroke="white" stroke-width="2"/>
<path d="M735.5 857.5C735.5 857.5 835 932.5 811.5 954.5C788 976.5 754 949 716 985.5C678 1022 811.5 1050.5 765 1081C718.5 1111.5 662 1030.5 678 1100.5C694 1170.5 662 1131.5 662 1131.5" stroke="white" stroke-width="2"/>
<path d="M731.5 856.5C731.5 856.5 729 857.5 682.5 835.5C636 813.5 628.5 858 647 897C665.5 936 619 926 551.5 887C484 848 517 939 503.5 967C490 995 432.5 872.5 405.5 949.5C378.5 1026.5 366 995 366 995" stroke="white" stroke-width="2"/>
<path class = "line-animation" d="M729.114 854.939C720.546 878.321 740.614 886.526 756.675 901.807C761.434 906.336 761.888 913.817 756.879 918.342C746.107 928.074 705.263 913.917 707.854 926.745C710.53 939.994 745.061 958.531 746.618 959.799C760.284 970.932 764.735 999.174 757.208 1014.66C751.852 1025.68 716.342 1021.96 705.172 1018.29C632.024 994.266 664.985 997.131 582.817 989.67C576.526 989.099 569.935 988.806 563.894 990.65C557.671 992.549 557.869 1000.34 559.957 1004.55C566.876 1018.51 597.849 1042.18 589.514 1060.52C586.956 1066.15 580.963 1069.71 578.264 1075.27C576.15 1079.63 576.385 1084.77 575.445 1089.52" stroke="white" stroke-width="2"/>
<path class="animated fadeIn delay-5s" fill-rule="evenodd" clip-rule="evenodd" d="M573.5 1097C577.09 1097 580 1094.09 580 1090.5C580 1086.91 577.09 1084 573.5 1084C569.91 1084 567 1086.91 567 1090.5C567 1094.09 569.91 1097 573.5 1097Z" fill="#4AF6CD"/>
<path class="animated fadeIn delay-5s"fill-rule="evenodd" clip-rule="evenodd" d="M661 1134C662.657 1134 664 1132.66 664 1131C664 1129.34 662.657 1128 661 1128C659.343 1128 658 1129.34 658 1131C658 1132.66 659.343 1134 661 1134Z" fill="#4AF6CD"/>
<path class="animated fadeIn delay-5s" fill-rule="evenodd" clip-rule="evenodd" d="M725 1242C726.657 1242 728 1240.66 728 1239C728 1237.34 726.657 1236 725 1236C723.343 1236 722 1237.34 722 1239C722 1240.66 723.343 1242 725 1242Z" fill="#4AF6CD"/>
<path class="animated fadeIn delay-5s" fill-rule="evenodd" clip-rule="evenodd" d="M365 999C366.657 999 368 997.657 368 996C368 994.343 366.657 993 365 993C363.343 993 362 994.343 362 996C362 997.657 363.343 999 365 999Z" fill="#4AF6CD"/>
<path d="M398.41 1081.98L396.17 1093H394.218L392.186 1083.77L390.138 1093H388.234L385.994 1081.98H387.482L389.258 1091.67L391.386 1081.98H393.002L395.178 1091.67L397.018 1081.98H398.41ZM406.544 1088.54C406.544 1088.78 406.534 1089.03 406.512 1089.29H401.136C401.2 1090.22 401.435 1090.9 401.84 1091.34C402.246 1091.77 402.768 1091.99 403.408 1091.99C403.814 1091.99 404.187 1091.93 404.528 1091.82C404.87 1091.7 405.227 1091.51 405.6 1091.26L406.24 1092.14C405.344 1092.84 404.363 1093.19 403.296 1093.19C402.123 1093.19 401.206 1092.81 400.544 1092.04C399.894 1091.27 399.568 1090.22 399.568 1088.87C399.568 1088 399.707 1087.22 399.984 1086.55C400.272 1085.87 400.678 1085.34 401.2 1084.95C401.734 1084.57 402.358 1084.38 403.072 1084.38C404.192 1084.38 405.051 1084.74 405.648 1085.48C406.246 1086.22 406.544 1087.23 406.544 1088.54ZM405.088 1088.1C405.088 1087.27 404.923 1086.64 404.592 1086.2C404.262 1085.76 403.766 1085.54 403.104 1085.54C401.899 1085.54 401.243 1086.43 401.136 1088.2H405.088V1088.1ZM411.183 1084.38C411.759 1084.38 412.276 1084.46 412.735 1084.62C413.194 1084.78 413.631 1085.02 414.047 1085.34L413.423 1086.26C413.039 1086.02 412.671 1085.84 412.319 1085.72C411.978 1085.6 411.615 1085.54 411.231 1085.54C410.751 1085.54 410.372 1085.65 410.095 1085.85C409.818 1086.04 409.679 1086.31 409.679 1086.65C409.679 1086.99 409.807 1087.26 410.063 1087.45C410.33 1087.64 410.804 1087.83 411.487 1088.01C412.426 1088.24 413.124 1088.56 413.583 1088.97C414.052 1089.37 414.287 1089.93 414.287 1090.63C414.287 1091.46 413.962 1092.1 413.311 1092.54C412.671 1092.97 411.887 1093.19 410.959 1093.19C409.679 1093.19 408.618 1092.82 407.775 1092.09L408.559 1091.19C409.274 1091.74 410.063 1092.01 410.927 1092.01C411.482 1092.01 411.919 1091.9 412.239 1091.67C412.57 1091.44 412.735 1091.12 412.735 1090.73C412.735 1090.44 412.676 1090.21 412.559 1090.04C412.442 1089.86 412.239 1089.7 411.951 1089.58C411.663 1089.44 411.242 1089.29 410.687 1089.14C409.791 1088.91 409.14 1088.59 408.735 1088.2C408.34 1087.81 408.143 1087.3 408.143 1086.7C408.143 1086.26 408.271 1085.86 408.527 1085.51C408.794 1085.15 409.156 1084.87 409.615 1084.68C410.084 1084.48 410.607 1084.38 411.183 1084.38ZM420.62 1092.62C420.065 1093 419.436 1093.19 418.732 1093.19C418.017 1093.19 417.457 1092.99 417.052 1092.58C416.657 1092.17 416.46 1091.57 416.46 1090.79V1085.7H414.988V1084.57H416.46V1082.66L417.932 1082.49V1084.57H419.932L419.772 1085.7H417.932V1090.73C417.932 1091.17 418.006 1091.49 418.156 1091.69C418.316 1091.88 418.577 1091.98 418.94 1091.98C419.27 1091.98 419.644 1091.86 420.06 1091.64L420.62 1092.62ZM429.179 1081.78C429.915 1081.78 430.545 1081.89 431.067 1082.1C431.59 1082.31 432.097 1082.63 432.587 1083.06L431.755 1083.99C431.339 1083.66 430.929 1083.42 430.523 1083.27C430.129 1083.11 429.702 1083.03 429.243 1083.03C428.667 1083.03 428.193 1083.17 427.819 1083.43C427.446 1083.7 427.259 1084.09 427.259 1084.6C427.259 1084.92 427.323 1085.19 427.451 1085.42C427.579 1085.63 427.814 1085.83 428.155 1086.01C428.507 1086.19 429.014 1086.38 429.675 1086.58C430.369 1086.8 430.945 1087.03 431.403 1087.27C431.862 1087.52 432.23 1087.86 432.507 1088.3C432.795 1088.72 432.939 1089.27 432.939 1089.93C432.939 1090.57 432.779 1091.13 432.459 1091.62C432.15 1092.11 431.697 1092.5 431.099 1092.78C430.513 1093.05 429.814 1093.19 429.003 1093.19C427.478 1093.19 426.23 1092.72 425.259 1091.77L426.091 1090.84C426.539 1091.2 426.993 1091.48 427.451 1091.67C427.91 1091.85 428.422 1091.94 428.987 1091.94C429.67 1091.94 430.235 1091.78 430.683 1091.45C431.131 1091.11 431.355 1090.62 431.355 1089.98C431.355 1089.61 431.286 1089.31 431.147 1089.08C431.009 1088.83 430.769 1088.62 430.427 1088.42C430.097 1088.23 429.611 1088.04 428.971 1087.85C427.841 1087.51 427.014 1087.1 426.491 1086.62C425.969 1086.14 425.707 1085.49 425.707 1084.66C425.707 1084.11 425.851 1083.61 426.139 1083.18C426.438 1082.74 426.849 1082.4 427.371 1082.15C427.905 1081.91 428.507 1081.78 429.179 1081.78ZM439.066 1084.38C439.834 1084.38 440.431 1084.61 440.858 1085.06C441.295 1085.52 441.514 1086.15 441.514 1086.95V1093H440.042V1087.16C440.042 1086.56 439.925 1086.14 439.69 1085.9C439.466 1085.65 439.135 1085.53 438.698 1085.53C438.261 1085.53 437.871 1085.66 437.53 1085.91C437.189 1086.17 436.869 1086.53 436.57 1087V1093H435.098V1081.19L436.57 1081.03V1085.74C437.231 1084.83 438.063 1084.38 439.066 1084.38ZM447.641 1084.38C448.825 1084.38 449.742 1084.77 450.393 1085.56C451.054 1086.35 451.385 1087.42 451.385 1088.78C451.385 1089.65 451.236 1090.42 450.937 1091.1C450.638 1091.76 450.206 1092.27 449.641 1092.65C449.076 1093.01 448.404 1093.19 447.625 1093.19C446.441 1093.19 445.518 1092.8 444.857 1092.01C444.196 1091.22 443.865 1090.15 443.865 1088.79C443.865 1087.92 444.014 1087.15 444.313 1086.49C444.612 1085.82 445.044 1085.3 445.609 1084.94C446.174 1084.56 446.852 1084.38 447.641 1084.38ZM447.641 1085.56C446.18 1085.56 445.449 1086.64 445.449 1088.79C445.449 1090.94 446.174 1092.01 447.625 1092.01C449.076 1092.01 449.801 1090.93 449.801 1088.78C449.801 1086.63 449.081 1085.56 447.641 1085.56ZM457.481 1084.38C457.78 1084.38 458.057 1084.41 458.313 1084.47L458.041 1085.91C457.785 1085.85 457.54 1085.82 457.305 1085.82C456.782 1085.82 456.361 1086.01 456.041 1086.39C455.721 1086.78 455.47 1087.37 455.289 1088.18V1093H453.817V1084.57H455.081L455.225 1086.28C455.449 1085.65 455.753 1085.18 456.137 1084.86C456.521 1084.54 456.969 1084.38 457.481 1084.38ZM465.872 1088.54C465.872 1088.78 465.862 1089.03 465.84 1089.29H460.464C460.528 1090.22 460.763 1090.9 461.168 1091.34C461.574 1091.77 462.096 1091.99 462.736 1091.99C463.142 1091.99 463.515 1091.93 463.856 1091.82C464.198 1091.7 464.555 1091.51 464.928 1091.26L465.568 1092.14C464.672 1092.84 463.691 1093.19 462.624 1093.19C461.451 1093.19 460.534 1092.81 459.872 1092.04C459.222 1091.27 458.896 1090.22 458.896 1088.87C458.896 1088 459.035 1087.22 459.312 1086.55C459.6 1085.87 460.006 1085.34 460.528 1084.95C461.062 1084.57 461.686 1084.38 462.4 1084.38C463.52 1084.38 464.379 1084.74 464.976 1085.48C465.574 1086.22 465.872 1087.23 465.872 1088.54ZM464.416 1088.1C464.416 1087.27 464.251 1086.64 463.92 1086.2C463.59 1085.76 463.094 1085.54 462.432 1085.54C461.227 1085.54 460.571 1086.43 460.464 1088.2H464.416V1088.1ZM474.41 1080.18V1094.57H474.058V1080.18H474.41ZM493.237 1093H491.765L491.381 1088.02C491.221 1086.07 491.131 1084.57 491.109 1083.53L488.725 1091.75H487.301L484.789 1083.51C484.789 1084.85 484.72 1086.39 484.581 1088.14L484.213 1093H482.773L483.685 1081.98H485.733L488.053 1089.99L490.261 1081.98H492.325L493.237 1093ZM501.434 1091.03C501.434 1091.37 501.493 1091.63 501.61 1091.8C501.728 1091.96 501.904 1092.08 502.138 1092.17L501.802 1093.19C501.365 1093.14 501.013 1093.02 500.746 1092.82C500.48 1092.63 500.282 1092.33 500.154 1091.93C499.589 1092.77 498.752 1093.19 497.642 1093.19C496.81 1093.19 496.154 1092.96 495.674 1092.49C495.194 1092.02 494.954 1091.41 494.954 1090.65C494.954 1089.75 495.274 1089.06 495.914 1088.58C496.565 1088.1 497.482 1087.86 498.666 1087.86H499.962V1087.24C499.962 1086.64 499.818 1086.22 499.53 1085.96C499.242 1085.7 498.8 1085.58 498.202 1085.58C497.584 1085.58 496.826 1085.73 495.93 1086.02L495.562 1084.95C496.608 1084.57 497.578 1084.38 498.474 1084.38C499.466 1084.38 500.208 1084.62 500.698 1085.11C501.189 1085.59 501.434 1086.28 501.434 1087.18V1091.03ZM497.978 1092.09C498.821 1092.09 499.482 1091.65 499.962 1090.78V1088.84H498.858C497.301 1088.84 496.522 1089.42 496.522 1090.57C496.522 1091.07 496.645 1091.45 496.89 1091.7C497.136 1091.96 497.498 1092.09 497.978 1092.09ZM505.981 1093.19C505.437 1093.19 505.005 1093.03 504.685 1092.71C504.376 1092.38 504.221 1091.92 504.221 1091.34V1081.18L505.693 1081V1091.3C505.693 1091.54 505.731 1091.71 505.805 1091.82C505.891 1091.92 506.029 1091.98 506.221 1091.98C506.424 1091.98 506.605 1091.94 506.765 1091.88L507.149 1092.9C506.797 1093.1 506.408 1093.19 505.981 1093.19ZM510.461 1084.57V1093H508.989V1084.57H510.461ZM509.709 1080.52C510.018 1080.52 510.269 1080.62 510.461 1080.81C510.653 1081 510.749 1081.24 510.749 1081.53C510.749 1081.82 510.653 1082.06 510.461 1082.25C510.269 1082.43 510.018 1082.52 509.709 1082.52C509.41 1082.52 509.165 1082.43 508.973 1082.25C508.781 1082.06 508.685 1081.82 508.685 1081.53C508.685 1081.24 508.781 1081 508.973 1080.81C509.165 1080.62 509.41 1080.52 509.709 1080.52ZM517.36 1084.38C518.32 1084.38 519.083 1084.77 519.648 1085.54C520.214 1086.31 520.496 1087.39 520.496 1088.78C520.496 1089.65 520.363 1090.42 520.096 1091.1C519.83 1091.76 519.446 1092.27 518.944 1092.65C518.443 1093.01 517.856 1093.19 517.184 1093.19C516.299 1093.19 515.552 1092.82 514.944 1092.07L514.8 1093H513.504V1081.18L514.976 1081V1085.62C515.584 1084.79 516.379 1084.38 517.36 1084.38ZM516.832 1092.02C517.483 1092.02 517.99 1091.76 518.352 1091.24C518.726 1090.71 518.912 1089.89 518.912 1088.78C518.912 1087.63 518.742 1086.81 518.4 1086.31C518.059 1085.8 517.574 1085.54 516.944 1085.54C516.198 1085.54 515.542 1085.98 514.976 1086.86V1090.89C515.2 1091.24 515.472 1091.52 515.792 1091.72C516.123 1091.92 516.47 1092.02 516.832 1092.02ZM529.276 1093H528.012L527.9 1091.69C527.58 1092.21 527.212 1092.59 526.796 1092.84C526.38 1093.07 525.874 1093.19 525.276 1093.19C524.54 1093.19 523.964 1092.97 523.548 1092.52C523.132 1092.07 522.924 1091.44 522.924 1090.62V1084.57H524.396V1090.46C524.396 1091.03 524.498 1091.44 524.7 1091.69C524.903 1091.92 525.234 1092.04 525.692 1092.04C526.514 1092.04 527.218 1091.55 527.804 1090.58V1084.57H529.276V1093ZM532.701 1090.97C533.021 1090.97 533.288 1091.07 533.501 1091.29C533.714 1091.5 533.821 1091.76 533.821 1092.07C533.821 1092.4 533.725 1092.78 533.533 1093.21L532.461 1095.66H531.405L532.045 1093C531.906 1092.89 531.794 1092.76 531.709 1092.6C531.634 1092.44 531.597 1092.26 531.597 1092.07C531.597 1091.76 531.704 1091.5 531.917 1091.29C532.13 1091.07 532.392 1090.97 532.701 1090.97ZM544.331 1081.78C544.992 1081.78 545.547 1081.87 545.995 1082.04C546.454 1082.21 546.918 1082.49 547.387 1082.87L546.555 1083.85C545.883 1083.3 545.174 1083.03 544.427 1083.03C543.51 1083.03 542.768 1083.38 542.203 1084.09C541.648 1084.79 541.371 1085.92 541.371 1087.48C541.371 1088.99 541.648 1090.11 542.203 1090.84C542.758 1091.55 543.494 1091.91 544.411 1091.91C544.88 1091.91 545.291 1091.83 545.643 1091.67C545.995 1091.51 546.368 1091.29 546.763 1091L547.515 1091.96C547.174 1092.31 546.736 1092.61 546.203 1092.84C545.67 1093.07 545.056 1093.19 544.363 1093.19C543.467 1093.19 542.667 1092.97 541.963 1092.54C541.27 1092.09 540.726 1091.44 540.331 1090.58C539.947 1089.72 539.755 1088.69 539.755 1087.48C539.755 1086.27 539.958 1085.25 540.363 1084.39C540.768 1083.53 541.318 1082.88 542.011 1082.44C542.704 1082 543.478 1081.78 544.331 1081.78ZM555.3 1093L554.468 1090.23H550.292L549.46 1093H547.924L551.46 1081.98H553.38L556.9 1093H555.3ZM550.66 1089H554.1L552.388 1083.24L550.66 1089Z" fill="white"/>
<path d="M598.378 846.784C599.039 846.784 599.594 846.869 600.042 847.04C600.501 847.211 600.965 847.488 601.434 847.872L600.602 848.848C599.93 848.304 599.221 848.032 598.474 848.032C597.557 848.032 596.815 848.384 596.25 849.088C595.695 849.792 595.418 850.923 595.418 852.48C595.418 853.995 595.695 855.115 596.25 855.84C596.805 856.555 597.541 856.912 598.458 856.912C598.927 856.912 599.338 856.832 599.69 856.672C600.042 856.512 600.415 856.288 600.81 856L601.562 856.96C601.221 857.312 600.783 857.605 600.25 857.84C599.717 858.075 599.103 858.192 598.41 858.192C597.514 858.192 596.714 857.973 596.01 857.536C595.317 857.088 594.773 856.437 594.378 855.584C593.994 854.72 593.802 853.685 593.802 852.48C593.802 851.275 594.005 850.245 594.41 849.392C594.815 848.528 595.365 847.877 596.058 847.44C596.751 847.003 597.525 846.784 598.378 846.784ZM609.401 858H608.137L608.025 856.688C607.705 857.211 607.337 857.595 606.921 857.84C606.505 858.075 605.999 858.192 605.401 858.192C604.665 858.192 604.089 857.968 603.673 857.52C603.257 857.072 603.049 856.437 603.049 855.616V849.568H604.521V855.456C604.521 856.032 604.623 856.443 604.825 856.688C605.028 856.923 605.359 857.04 605.817 857.04C606.639 857.04 607.343 856.555 607.929 855.584V849.568H609.401V858ZM616.106 849.376C616.405 849.376 616.682 849.408 616.938 849.472L616.666 850.912C616.41 850.848 616.165 850.816 615.93 850.816C615.407 850.816 614.986 851.008 614.666 851.392C614.346 851.776 614.095 852.373 613.914 853.184V858H612.442V849.568H613.706L613.85 851.28C614.074 850.651 614.378 850.176 614.762 849.856C615.146 849.536 615.594 849.376 616.106 849.376ZM622.278 849.376C622.576 849.376 622.854 849.408 623.11 849.472L622.838 850.912C622.582 850.848 622.336 850.816 622.102 850.816C621.579 850.816 621.158 851.008 620.838 851.392C620.518 851.776 620.267 852.373 620.086 853.184V858H618.614V849.568H619.878L620.022 851.28C620.246 850.651 620.55 850.176 620.934 849.856C621.318 849.536 621.766 849.376 622.278 849.376ZM630.669 853.536C630.669 853.781 630.659 854.032 630.637 854.288H625.261C625.325 855.216 625.56 855.899 625.965 856.336C626.371 856.773 626.893 856.992 627.533 856.992C627.939 856.992 628.312 856.933 628.653 856.816C628.995 856.699 629.352 856.512 629.725 856.256L630.365 857.136C629.469 857.84 628.488 858.192 627.421 858.192C626.248 858.192 625.331 857.808 624.669 857.04C624.019 856.272 623.693 855.216 623.693 853.872C623.693 852.997 623.832 852.224 624.109 851.552C624.397 850.869 624.803 850.336 625.325 849.952C625.859 849.568 626.483 849.376 627.197 849.376C628.317 849.376 629.176 849.744 629.773 850.48C630.371 851.216 630.669 852.235 630.669 853.536ZM629.213 853.104C629.213 852.272 629.048 851.637 628.717 851.2C628.387 850.763 627.891 850.544 627.229 850.544C626.024 850.544 625.368 851.429 625.261 853.2H629.213V853.104ZM636.988 849.376C637.756 849.376 638.353 849.605 638.78 850.064C639.217 850.523 639.436 851.152 639.436 851.952V858H637.964V852.16C637.964 851.563 637.852 851.141 637.628 850.896C637.404 850.651 637.073 850.528 636.636 850.528C636.188 850.528 635.793 850.656 635.452 850.912C635.111 851.168 634.791 851.536 634.492 852.016V858H633.02V849.568H634.284L634.412 850.816C634.711 850.368 635.079 850.016 635.516 849.76C635.964 849.504 636.455 849.376 636.988 849.376ZM646.651 857.616C646.096 858 645.467 858.192 644.763 858.192C644.048 858.192 643.488 857.989 643.083 857.584C642.688 857.168 642.491 856.571 642.491 855.792V850.704H641.019V849.568H642.491V847.664L643.963 847.488V849.568H645.963L645.803 850.704H643.963V855.728C643.963 856.165 644.038 856.485 644.187 856.688C644.347 856.88 644.608 856.976 644.971 856.976C645.302 856.976 645.675 856.864 646.091 856.64L646.651 857.616ZM654.011 846.976V856.672H658.539L658.363 858H652.491V846.976H654.011ZM663.141 849.376C664.325 849.376 665.242 849.771 665.893 850.56C666.554 851.349 666.885 852.421 666.885 853.776C666.885 854.651 666.736 855.424 666.437 856.096C666.138 856.757 665.706 857.275 665.141 857.648C664.576 858.011 663.904 858.192 663.125 858.192C661.941 858.192 661.018 857.797 660.357 857.008C659.696 856.219 659.365 855.147 659.365 853.792C659.365 852.917 659.514 852.149 659.813 851.488C660.112 850.816 660.544 850.299 661.109 849.936C661.674 849.563 662.352 849.376 663.141 849.376ZM663.141 850.56C661.68 850.56 660.949 851.637 660.949 853.792C660.949 855.936 661.674 857.008 663.125 857.008C664.576 857.008 665.301 855.931 665.301 853.776C665.301 851.632 664.581 850.56 663.141 850.56ZM672.389 849.376C672.89 849.376 673.349 849.451 673.765 849.6C674.181 849.739 674.581 849.968 674.965 850.288L674.261 851.216C673.962 851.003 673.669 850.848 673.381 850.752C673.104 850.645 672.794 850.592 672.453 850.592C671.77 850.592 671.237 850.864 670.853 851.408C670.48 851.952 670.293 852.757 670.293 853.824C670.293 854.891 670.48 855.68 670.853 856.192C671.226 856.693 671.76 856.944 672.453 856.944C672.784 856.944 673.088 856.896 673.365 856.8C673.642 856.693 673.952 856.528 674.293 856.304L674.965 857.264C674.197 857.883 673.338 858.192 672.389 858.192C671.248 858.192 670.346 857.808 669.685 857.04C669.034 856.272 668.709 855.211 668.709 853.856C668.709 852.96 668.858 852.176 669.157 851.504C669.456 850.832 669.877 850.309 670.421 849.936C670.976 849.563 671.632 849.376 672.389 849.376ZM682.481 856.032C682.481 856.373 682.54 856.629 682.657 856.8C682.775 856.96 682.951 857.083 683.185 857.168L682.849 858.192C682.412 858.139 682.06 858.016 681.793 857.824C681.527 857.632 681.329 857.333 681.201 856.928C680.636 857.771 679.799 858.192 678.689 858.192C677.857 858.192 677.201 857.957 676.721 857.488C676.241 857.019 676.001 856.405 676.001 855.648C676.001 854.752 676.321 854.064 676.961 853.584C677.612 853.104 678.529 852.864 679.713 852.864H681.009V852.24C681.009 851.643 680.865 851.216 680.577 850.96C680.289 850.704 679.847 850.576 679.249 850.576C678.631 850.576 677.873 850.725 676.977 851.024L676.609 849.952C677.655 849.568 678.625 849.376 679.521 849.376C680.513 849.376 681.255 849.621 681.745 850.112C682.236 850.592 682.481 851.28 682.481 852.176V856.032ZM679.025 857.088C679.868 857.088 680.529 856.651 681.009 855.776V853.84H679.905C678.348 853.84 677.569 854.416 677.569 855.568C677.569 856.069 677.692 856.448 677.937 856.704C678.183 856.96 678.545 857.088 679.025 857.088ZM689.76 857.616C689.206 858 688.576 858.192 687.872 858.192C687.158 858.192 686.598 857.989 686.192 857.584C685.798 857.168 685.6 856.571 685.6 855.792V850.704H684.128V849.568H685.6V847.664L687.072 847.488V849.568H689.072L688.912 850.704H687.072V855.728C687.072 856.165 687.147 856.485 687.296 856.688C687.456 856.88 687.718 856.976 688.08 856.976C688.411 856.976 688.784 856.864 689.2 856.64L689.76 857.616ZM692.758 849.568V858H691.286V849.568H692.758ZM692.006 845.52C692.315 845.52 692.566 845.616 692.758 845.808C692.95 846 693.046 846.24 693.046 846.528C693.046 846.816 692.95 847.056 692.758 847.248C692.566 847.429 692.315 847.52 692.006 847.52C691.707 847.52 691.462 847.429 691.27 847.248C691.078 847.056 690.982 846.816 690.982 846.528C690.982 846.24 691.078 846 691.27 845.808C691.462 845.616 691.707 845.52 692.006 845.52ZM698.969 849.376C700.153 849.376 701.071 849.771 701.721 850.56C702.383 851.349 702.713 852.421 702.713 853.776C702.713 854.651 702.564 855.424 702.265 856.096C701.967 856.757 701.535 857.275 700.969 857.648C700.404 858.011 699.732 858.192 698.953 858.192C697.769 858.192 696.847 857.797 696.185 857.008C695.524 856.219 695.193 855.147 695.193 853.792C695.193 852.917 695.343 852.149 695.641 851.488C695.94 850.816 696.372 850.299 696.937 849.936C697.503 849.563 698.18 849.376 698.969 849.376ZM698.969 850.56C697.508 850.56 696.777 851.637 696.777 853.792C696.777 855.936 697.503 857.008 698.953 857.008C700.404 857.008 701.129 855.931 701.129 853.776C701.129 851.632 700.409 850.56 698.969 850.56ZM709.113 849.376C709.881 849.376 710.478 849.605 710.905 850.064C711.342 850.523 711.561 851.152 711.561 851.952V858H710.089V852.16C710.089 851.563 709.977 851.141 709.753 850.896C709.529 850.651 709.198 850.528 708.761 850.528C708.313 850.528 707.918 850.656 707.577 850.912C707.236 851.168 706.916 851.536 706.617 852.016V858H705.145V849.568H706.409L706.537 850.816C706.836 850.368 707.204 850.016 707.641 849.76C708.089 849.504 708.58 849.376 709.113 849.376Z" fill="white"/>
<path class="animated fadeIn delay-5s"fill-rule="evenodd" clip-rule="evenodd" d="M729.5 862C733.09 862 736 859.09 736 855.5C736 851.91 733.09 849 729.5 849C725.91 849 723 851.91 723 855.5C723 859.09 725.91 862 729.5 862Z" fill="#4AF6CD"/>
</svg>
