<svg width="59" height="46" viewBox="0 0 59 46" fill="none" xmlns="http://www.w3.org/2000/svg">
<path fill-rule="evenodd" clip-rule="evenodd" d="M58.5976 42.8612C58.5882 42.8896 58.5765 42.9181 58.5623 42.9442L58.5628 42.9438C58.5487 42.9723 58.5346 42.9984 58.5064 43.0174C58.4954 43.0348 58.4844 43.0501 58.4734 43.0654C58.4679 43.0731 58.4625 43.0807 58.457 43.0886C58.4382 43.1123 58.417 43.1385 58.3958 43.1622C58.377 43.1812 58.3582 43.2002 58.337 43.2191C58.3135 43.2429 58.2876 43.2642 58.2618 43.2832C58.251 43.2905 58.2389 43.2984 58.2266 43.3063C58.2148 43.3138 58.2027 43.3213 58.1912 43.3283C58.1842 43.3319 58.1773 43.3356 58.1704 43.3393C58.1656 43.342 58.1608 43.3447 58.156 43.3473C58.1402 43.3562 58.1242 43.3652 58.1066 43.3734C58.0971 43.3782 58.0873 43.3825 58.0773 43.3864C58.0665 43.3908 58.0555 43.3948 58.0444 43.3988C58.0354 43.4021 58.0263 43.4055 58.0172 43.409C58.0109 43.4114 58.0049 43.414 57.9989 43.4167C57.9932 43.4192 57.9875 43.4217 57.9815 43.4239C57.975 43.4265 57.9682 43.4287 57.9608 43.4304C57.956 43.4315 57.9519 43.4315 57.9478 43.4315H57.9465C57.9428 43.4316 57.9391 43.4317 57.9349 43.4327C57.862 43.4517 57.7867 43.4636 57.7091 43.4636C57.6033 43.4636 57.5657 43.4802 57.5657 43.4802C57.5224 43.5308 57.4438 43.7839 57.3941 43.9442L57.3893 43.9596C57.2058 44.5529 56.8225 45.787 55.2728 45.787C53.9471 45.787 53.2886 44.8988 52.8068 44.2489L52.8034 44.2444C52.3519 43.6297 52.1802 43.4635 51.8415 43.4635C51.5029 43.4635 51.3335 43.6296 50.8797 44.2419L50.8763 44.2465C50.3945 44.8963 49.7359 45.7846 48.408 45.7846C47.0823 45.7846 46.4238 44.8964 45.942 44.2465L45.9386 44.2419C45.4871 43.6297 45.3154 43.4635 44.9768 43.4635C44.6405 43.4635 44.4688 43.6297 44.0149 44.2444C43.5351 44.8946 42.8743 45.787 41.5456 45.787C40.2176 45.787 39.5591 44.8988 39.0773 44.2489L39.0739 44.2444C38.6223 43.6321 38.4506 43.466 38.112 43.466C37.7733 43.466 37.604 43.6321 37.1501 44.2444C36.6704 44.8946 36.0118 45.787 34.6808 45.787C33.3551 45.787 32.6967 44.8988 32.2149 44.2489L32.2115 44.2444C31.7599 43.6321 31.5882 43.466 31.2496 43.466C30.9133 43.466 30.7416 43.6321 30.2877 44.2468C29.8079 44.897 29.1471 45.7894 27.8184 45.7894C26.4927 45.7894 25.8342 44.9012 25.3524 44.2514L25.349 44.2468C24.8975 43.6345 24.7258 43.4684 24.3872 43.4684C24.0509 43.4684 23.8792 43.6346 23.4253 44.2492C22.9455 44.8995 22.2846 45.7918 20.9559 45.7918C20.5349 45.7918 20.1516 45.6186 19.8812 45.3053C19.225 44.5507 19.3567 43.2644 19.6272 41.2281L19.6318 41.1929C19.7284 40.4561 19.8757 39.3326 19.8271 38.7861C18.0704 39.1324 15.5775 42.6854 14.2841 45.2698C14.1242 45.5926 13.7973 45.792 13.4446 45.792C13.4257 45.792 13.4069 45.792 13.3881 45.7896C13.0142 45.7683 12.6873 45.5238 12.5603 45.1678C12.3439 44.5645 10.4955 39.1941 12.4168 36.2228C13.1365 35.1121 14.3029 34.4737 15.7939 34.3764C17.0897 34.291 17.6824 33.9397 17.7952 33.6621C17.8705 33.477 17.7506 33.1613 17.4872 32.8599C16.7863 32.0554 15.2201 31.4099 13.4375 31.8988C10.9657 32.5732 8.19539 35.917 7.26174 39.3534C6.93483 40.5614 6.58204 42.797 7.91785 44.1806C8.28001 44.558 8.27061 45.1584 7.89903 45.5238C7.5251 45.8893 6.9325 45.8822 6.56798 45.5049C5.09344 43.979 4.69599 41.6153 5.4462 38.8528C6.41729 35.2739 9.48878 31.0092 12.9458 30.067C15.5209 29.3645 17.7903 30.3328 18.9004 31.6072C19.6694 32.4877 19.8999 33.5011 19.5353 34.3887C19.2179 35.16 18.3336 36.1141 15.916 36.2731C15.0153 36.3324 14.3874 36.6575 13.9947 37.2627C13.2022 38.4873 13.3856 40.6588 13.7454 42.3913C15.1565 40.1058 17.6329 36.7856 20.1963 36.8663C20.6102 36.8806 20.9841 37.0609 21.2475 37.3766C21.5109 37.6898 21.6402 38.0957 21.6873 38.5988C23.4181 37.443 25.9442 36.2991 30.9298 35.7912C25.5253 13.6964 35.685 1.25821 36.146 0.709996C36.1499 0.706034 36.1538 0.702898 36.1576 0.699899C36.1628 0.695714 36.1677 0.691794 36.1718 0.686264C36.2 0.65541 36.2283 0.629304 36.2588 0.603199C36.2776 0.584213 36.2965 0.5676 36.3176 0.553361C36.3465 0.533919 36.3754 0.517663 36.4056 0.500678L36.4258 0.489282C36.4446 0.477415 36.4634 0.465549 36.4846 0.456056C36.5293 0.43707 36.574 0.422831 36.621 0.410964C36.632 0.409383 36.6429 0.405691 36.6539 0.402L36.654 0.401986C36.6594 0.400145 36.6649 0.398304 36.6704 0.396725C36.7339 0.382485 36.7997 0.375366 36.8679 0.375366L37.0067 0.380112C37.2842 0.380112 37.5452 0.501149 37.7239 0.71474C38.1849 1.26032 48.2949 13.6349 42.9871 35.6228C56.8667 36.4439 58.5647 42.0329 58.6305 42.2773C58.6329 42.2868 58.6329 42.2987 58.6352 42.3082L58.6494 42.4007C58.6541 42.434 58.6588 42.4672 58.6588 42.5004C58.6588 42.5027 58.6589 42.505 58.6591 42.5073L58.6599 42.5147C58.6603 42.5172 58.6606 42.5198 58.6608 42.5223C58.661 42.5245 58.6611 42.5267 58.6611 42.5289C58.6611 42.5352 58.6608 42.5413 58.6604 42.5473C58.6597 42.5574 58.6584 42.5673 58.6571 42.5778L58.6564 42.5835L58.6562 42.5869C58.6539 42.6191 58.6515 42.6534 58.6446 42.6855C58.6435 42.6927 58.6421 42.6999 58.6407 42.7071C58.6394 42.7132 58.6381 42.7193 58.6368 42.7253C58.6334 42.7405 58.6296 42.7558 58.6258 42.771L58.621 42.7875L58.6177 42.7991C58.6117 42.8204 58.6058 42.8413 58.5976 42.8612ZM37.8081 38.5466H40.2398C45.5949 20.8735 40.5573 8.95955 37.8081 4.22964V38.5466ZM35.9268 4.47874V38.5466H33.6338C28.3824 21.2174 33.1564 9.37925 35.9268 4.47874ZM55.5991 43.4199L55.6039 43.4046L55.6031 43.4047C55.7136 43.0486 55.9017 42.4648 56.365 42.0543C55.3235 40.7252 52.0382 37.996 42.5018 37.5C42.2949 38.2523 42.0715 39.0141 41.8269 39.7878C41.7022 40.1817 41.3401 40.4499 40.9309 40.4499H32.94C32.5308 40.4499 32.1686 40.1817 32.044 39.7878C31.8182 39.0663 31.6112 38.3567 31.416 37.6566C25.3696 38.2309 23.2061 39.7617 21.5528 41.0527C21.5455 41.1083 21.5385 41.1635 21.5314 41.2192C21.5204 41.3062 21.5093 41.3944 21.4964 41.487C21.4047 42.18 21.2635 43.2479 21.2918 43.8175C21.4635 43.7155 21.6375 43.5066 21.9197 43.1222L21.9231 43.1176C22.4049 42.4678 23.0634 41.5795 24.3914 41.5795C25.717 41.5795 26.3755 42.4677 26.8573 43.1176L26.8607 43.1222C27.3123 43.7344 27.4839 43.9006 27.8226 43.9006C28.1612 43.9006 28.3306 43.7345 28.7845 43.1222L28.7878 43.1176C29.2696 42.4678 29.9282 41.5795 31.2561 41.5795C32.5818 41.5795 33.2403 42.4677 33.7221 43.1176L33.7255 43.1222C34.1794 43.7344 34.3511 43.9006 34.6874 43.9006C35.026 43.9006 35.1954 43.7345 35.6492 43.1222C36.129 42.4719 36.7875 41.5795 38.1186 41.5795C39.4442 41.5795 40.1027 42.4677 40.5845 43.1176L40.5879 43.1222C41.0418 43.7369 41.2135 43.903 41.5521 43.903C41.8908 43.903 42.0601 43.7369 42.514 43.1246L42.5174 43.1201C42.9992 42.4702 43.6577 41.582 44.9857 41.582C46.3113 41.582 46.9698 42.4702 47.4516 43.12L47.455 43.1246C47.9066 43.7369 48.0783 43.903 48.4169 43.903C48.7555 43.903 48.9272 43.7368 49.3811 43.1222C49.8609 42.4719 50.5218 41.5795 51.8505 41.5795C53.1785 41.5795 53.8369 42.4677 54.3187 43.1176L54.3221 43.1222C54.776 43.7344 54.9477 43.9006 55.284 43.9006C55.3898 43.9006 55.4275 43.884 55.4275 43.884C55.4707 43.8334 55.5493 43.5802 55.5991 43.4199Z" fill="white"/>
<path d="M6.28833 30.1358C6.16839 29.991 5.0772 28.7308 3.68029 28.7308C3.03358 28.7308 2.10932 28.999 1.38266 30.2735L0.571289 31.6974H7.59108L6.28833 30.1358Z" fill="white"/>
<path fill-rule="evenodd" clip-rule="evenodd" d="M4.46384 33.5745L5.43042 33.6766L5.30817 34.6496C4.95302 37.2791 2.20622 40.0535 2.08864 40.1721L0.816342 41.4442L0.50121 39.6643C0.127282 37.5711 0.393023 35.962 1.28904 34.8822C2.54249 33.3704 4.46384 33.5745 4.46384 33.5745ZM2.73533 36.0997C2.56835 36.299 2.44371 36.553 2.3567 36.852L2.35671 36.852C2.5566 36.5506 2.74944 36.235 2.91406 35.9169C2.85291 35.9715 2.79177 36.0309 2.73533 36.0997Z" fill="white"/>
<path fill-rule="evenodd" clip-rule="evenodd" d="M11.7066 28.2913C11.7066 29.2833 10.9047 30.0902 9.92165 30.0902C8.93864 30.0902 8.13907 29.2833 8.13907 28.2913C8.13907 27.2993 8.93864 26.4924 9.92165 26.4924C10.907 26.4924 11.7066 27.2993 11.7066 28.2913ZM10.0204 28.2913C10.0204 28.2367 9.97574 28.1916 9.92165 28.1916C9.86756 28.1916 9.82523 28.2367 9.82523 28.2913C9.82523 28.4005 10.0204 28.4005 10.0204 28.2913Z" fill="white"/>
</svg>
